<?xml version="1.0" encoding="UTF-8" standalone="no"?>
<!-- Created with Inkscape (http://www.inkscape.org/) -->

<svg
   xmlns:dc="http://purl.org/dc/elements/1.1/"
   xmlns:cc="http://creativecommons.org/ns#"
   xmlns:rdf="http://www.w3.org/1999/02/22-rdf-syntax-ns#"
   xmlns:svg="http://www.w3.org/2000/svg"
   xmlns="http://www.w3.org/2000/svg"
   xmlns:xlink="http://www.w3.org/1999/xlink"
   xmlns:sodipodi="http://sodipodi.sourceforge.net/DTD/sodipodi-0.dtd"
   xmlns:inkscape="http://www.inkscape.org/namespaces/inkscape"
   width="265.60056"
   height="257.49454"
   viewBox="0 0 70.273477 68.128764"
   version="1.1"
   id="svg23489"
   inkscape:version="0.48.5 r10040"
   sodipodi:docname="New document 13">
  <defs
     id="defs23483">
    <radialGradient
       inkscape:collect="always"
       xlink:href="#linearGradient3985"
       id="radialGradient4111"
       gradientUnits="userSpaceOnUse"
       gradientTransform="matrix(-0.003402,-0.20726467,0.21246042,-0.00321016,169.10403,262.30991)"
       cx="632.99463"
       cy="207.03682"
       fx="632.99463"
       fy="207.03682"
       r="153.30864" />
    <linearGradient
       id="linearGradient3985">
      <stop
         style="stop-color:#00ffff;stop-opacity:0.74778761"
         offset="0"
         id="stop3987" />
      <stop
         id="stop3989"
         offset="0.5"
         style="stop-color:#00ffff;stop-opacity:0.26548673" />
      <stop
         style="stop-color:#00ffff;stop-opacity:0"
         offset="1"
         id="stop3991" />
    </linearGradient>
    <linearGradient
       inkscape:collect="always"
       xlink:href="#linearGradient4127"
       id="linearGradient4138"
       gradientUnits="userSpaceOnUse"
       x1="660.25476"
       y1="-285.79132"
       x2="608.7594"
       y2="-256.06049" />
    <linearGradient
       inkscape:collect="always"
       id="linearGradient4127">
      <stop
         style="stop-color:#00ffff;stop-opacity:1;"
         offset="0"
         id="stop4129" />
      <stop
         style="stop-color:#00ffff;stop-opacity:0;"
         offset="1"
         id="stop4131" />
    </linearGradient>
    <linearGradient
       inkscape:collect="always"
       xlink:href="#linearGradient4127"
       id="linearGradient4144"
       gradientUnits="userSpaceOnUse"
       x1="660.25476"
       y1="-285.79132"
       x2="608.7594"
       y2="-256.06049" />
    <linearGradient
       inkscape:collect="always"
       xlink:href="#linearGradient4127"
       id="linearGradient4150"
       gradientUnits="userSpaceOnUse"
       x1="660.25476"
       y1="-285.79132"
       x2="608.7594"
       y2="-256.06049" />
    <linearGradient
       inkscape:collect="always"
       xlink:href="#linearGradient4127"
       id="linearGradient4167"
       gradientUnits="userSpaceOnUse"
       x1="660.25476"
       y1="-285.79132"
       x2="608.7594"
       y2="-256.06049" />
    <linearGradient
       inkscape:collect="always"
       xlink:href="#linearGradient4127"
       id="linearGradient4177"
       gradientUnits="userSpaceOnUse"
       x1="660.25476"
       y1="-285.79132"
       x2="608.7594"
       y2="-256.06049" />
  </defs>
  <sodipodi:namedview
     id="base"
     pagecolor="#7d848b"
     bordercolor="#666666"
     borderopacity="1.0"
     inkscape:pageopacity="0"
     inkscape:pageshadow="2"
     inkscape:zoom="4.2658118"
     inkscape:cx="159.07738"
     inkscape:cy="131.45943"
     inkscape:document-units="px"
     inkscape:current-layer="layer1"
     showgrid="false"
     inkscape:pagecheckerboard="false"
     showborder="true"
     units="px"
     inkscape:window-width="1920"
     inkscape:window-height="1017"
     inkscape:window-x="-8"
     inkscape:window-y="-8"
     inkscape:window-maximized="1"
     inkscape:showpageshadow="false"
     guidetolerance="28">
    <inkscape:grid
       type="xygrid"
       id="grid24034"
       spacingx="1px"
       spacingy="1px"
       empspacing="8"
       visible="true"
       enabled="true"
       snapvisiblegridlinesonly="true"
       originx="-285.87736px"
       originy="-634.06182px" />
  </sodipodi:namedview>
  <metadata
     id="metadata23486">
    <rdf:RDF>
      <cc:Work
         rdf:about="">
        <dc:format>image/svg+xml</dc:format>
        <dc:type
           rdf:resource="http://purl.org/dc/dcmitype/StillImage" />
        <dc:title></dc:title>
        <cc:license
           rdf:resource="" />
        <dc:creator>
          <cc:Agent>
            <dc:title>Robert Brooks</dc:title>
          </cc:Agent>
        </dc:creator>
      </cc:Work>
    </rdf:RDF>
  </metadata>
  <g
     inkscape:label="Layer 1"
     inkscape:groupmode="layer"
     id="layer1"
     transform="translate(-75.638387,-61.109034)">
    <g
       id="g4179"
       transform="translate(-97.605239,-34.2894)">
      <path
         style="opacity:0.69911505;color:#000000;fill:url(#radialGradient4111);fill-opacity:1;fill-rule:nonzero;stroke:none;stroke-width:12;marker:none;visibility:visible;display:inline;overflow:visible;enable-background:accumulate"
         d="m 243.5171,129.11004 c 0,18.6184 -15.73126,33.7116 -35.13674,33.7116 -19.40549,0 -35.13674,-15.0932 -35.13674,-33.7116 0,-18.61841 15.73125,-33.711606 35.13674,-33.711606 19.40548,0 35.13674,15.093196 35.13674,33.711606 z"
         id="path4098"
         inkscape:connector-curvature="0"
         gds_color="glow" />
      <path
         inkscape:connector-curvature="0"
         style="color:#000000;fill:#00ffff;fill-opacity:1;fill-rule:nonzero;stroke:none;stroke-width:55;marker:none;visibility:visible;display:inline;overflow:visible;enable-background:accumulate"
         d="m 210.51012,163.5272 c 0,0 0.0845,-30.96527 -1.32599,-31.34321 -1.63636,-0.43846 -31.19805,-1.18083 -31.19805,-1.18083 0,0 30.65549,0.0252 31.32612,-0.64542 1.21669,-1.79302 1.19792,-31.878621 1.19792,-31.878621 0,0 0.17333,30.021561 1.19792,31.878621 0.43069,0.74598 31.32612,0.64542 31.32612,0.64542 0,0 -30.19407,0.73258 -31.19805,1.15091 -1.05697,0.28321 -1.32599,31.37313 -1.32599,31.37313 z"
         id="path4100"
         sodipodi:nodetypes="ccccccccc"
         gds_color="burst" />
      <path
         style="opacity:0.7477876;color:#000000;fill:#00ffff;fill-opacity:1;fill-rule:nonzero;stroke:none;stroke-width:55;marker:none;visibility:visible;display:inline;overflow:visible;enable-background:accumulate"
         d="m 800.0625,362.96875 55.40625,90.84375 -36.4375,-7.375 39.34375,12.15625 1.875,3.09375 -55.125,20.15625 58.125,-15.25 0.0625,0.0937 0.0625,-0.125 3.03125,-0.78125 -1.125,-2.5 3.09375,-5.4375 -0.46875,-0.65625 0.46875,0 c -0.30981,-0.92942 -0.65036,-1.90202 -0.96875,-2.84375 l 3.5,6 31,-48.0625 L 866.75,452.4375 C 858.04885,426.9241 846.875,398.375 846.875,398.375 l 13.25,48 -60.0625,-83.40625 z"
         transform="matrix(0.26458334,0,0,0.26458334,-18.708558,9.5340977)"
         id="path4114"
         gds_color="burst"
         inkscape:connector-curvature="0" />
      <g
         transform="matrix(0.96592583,-0.25881905,0.25881905,0.96592583,-27.12578,58.810173)"
         inkscape:transform-center-y="26.586539"
         inkscape:transform-center-x="28.044794"
         id="g4135">
        <path
           style="opacity:0.59734509;color:#000000;fill:url(#linearGradient4138);fill-opacity:1;fill-rule:nonzero;stroke:none;stroke-width:55;marker:none;visibility:visible;display:inline;overflow:visible;enable-background:accumulate"
           d="m 667.84388,-293.38046 c -20.23769,8.85399 -72.72921,30.98897 -72.72921,30.98897 l 13.91341,18.97284 62.61037,-47.4321 z"
           id="path4125"
           inkscape:connector-curvature="0"
           transform="matrix(0.26458334,0,0,0.26458334,33.676206,208.79407)" />
      </g>
      <g
         id="g4140"
         inkscape:transform-center-x="33.940692"
         inkscape:transform-center-y="-0.83452658"
         transform="matrix(0.86602541,0.5,-0.5,0.86602541,94.319384,-87.15381)">
        <path
           transform="matrix(0.26458334,0,0,0.26458334,33.676206,208.79407)"
           inkscape:connector-curvature="0"
           id="path4142"
           d="m 667.84388,-293.38046 c -20.23769,8.85399 -72.72921,30.98897 -72.72921,30.98897 l 13.91341,18.97284 62.61037,-47.4321 z"
           style="opacity:0.59734509;color:#000000;fill:url(#linearGradient4144);fill-opacity:1;fill-rule:nonzero;stroke:none;stroke-width:55;marker:none;visibility:visible;display:inline;overflow:visible;enable-background:accumulate" />
      </g>
      <g
         id="g4152">
        <g
           id="g4146"
           inkscape:transform-center-x="26.586523"
           inkscape:transform-center-y="-28.044782"
           transform="matrix(0.25881905,0.96592583,-0.96592583,0.25881905,283.40621,-104.49123)">
          <path
             transform="matrix(0.26458334,0,0,0.26458334,33.676206,208.79407)"
             inkscape:connector-curvature="0"
             id="path4148"
             d="m 667.84388,-293.38046 c -20.23769,8.85399 -72.72921,30.98897 -72.72921,30.98897 l 13.91341,18.97284 62.61037,-47.4321 z"
             style="opacity:0.59734509;color:#000000;fill:url(#linearGradient4150);fill-opacity:1;fill-rule:nonzero;stroke:none;stroke-width:55;marker:none;visibility:visible;display:inline;overflow:visible;enable-background:accumulate" />
        </g>
      </g>
      <g
         transform="matrix(0.70710678,0.70710678,-0.70710678,0.70710678,155.6426,-110.94059)"
         id="g4162">
        <g
           id="g4156">
          <g
             id="g4158"
             inkscape:transform-center-x="26.586523"
             inkscape:transform-center-y="-28.044782"
             transform="matrix(0.25881905,0.96592583,-0.96592583,0.25881905,283.40621,-104.49123)">
            <path
               transform="matrix(0.26458334,0,0,0.26458334,33.676206,208.79407)"
               inkscape:connector-curvature="0"
               id="path4160"
               d="m 667.84388,-293.38046 c -20.23769,8.85399 -72.72921,30.98897 -72.72921,30.98897 l 13.91341,18.97284 62.61037,-47.4321 z"
               style="opacity:0.59734509;color:#000000;fill:url(#linearGradient4167);fill-opacity:1;fill-rule:nonzero;stroke:none;stroke-width:55;marker:none;visibility:visible;display:inline;overflow:visible;enable-background:accumulate" />
          </g>
        </g>
      </g>
      <g
         id="g4169"
         transform="matrix(-0.25881904,0.96592582,-0.96592582,-0.25881904,394.09581,-36.986692)">
        <g
           id="g4171">
          <g
             transform="matrix(0.25881905,0.96592583,-0.96592583,0.25881905,283.40621,-104.49123)"
             inkscape:transform-center-y="-28.044782"
             inkscape:transform-center-x="26.586523"
             id="g4173">
            <path
               style="opacity:0.59734509;color:#000000;fill:url(#linearGradient4177);fill-opacity:1;fill-rule:nonzero;stroke:none;stroke-width:55;marker:none;visibility:visible;display:inline;overflow:visible;enable-background:accumulate"
               d="m 667.84388,-293.38046 c -20.23769,8.85399 -72.72921,30.98897 -72.72921,30.98897 l 13.91341,18.97284 62.61037,-47.4321 z"
               id="path4175"
               inkscape:connector-curvature="0"
               transform="matrix(0.26458334,0,0,0.26458334,33.676206,208.79407)" />
          </g>
        </g>
      </g>
    </g>
  </g>
</svg>
