<?xml version="1.0" encoding="UTF-8" standalone="no"?>
<!-- Created with Inkscape (http://www.inkscape.org/) -->

<svg
   xmlns:dc="http://purl.org/dc/elements/1.1/"
   xmlns:cc="http://creativecommons.org/ns#"
   xmlns:rdf="http://www.w3.org/1999/02/22-rdf-syntax-ns#"
   xmlns:svg="http://www.w3.org/2000/svg"
   xmlns="http://www.w3.org/2000/svg"
   xmlns:xlink="http://www.w3.org/1999/xlink"
   xmlns:sodipodi="http://sodipodi.sourceforge.net/DTD/sodipodi-0.dtd"
   xmlns:inkscape="http://www.inkscape.org/namespaces/inkscape"
   width="1335.3049"
   height="914.5307"
   viewBox="0 0 353.29941 241.96959"
   version="1.1"
   id="svg23489"
   inkscape:version="0.48.5 r10040"
   sodipodi:docname="muzzle_effects.svg">
  <defs
     id="defs23483">
    <linearGradient
       inkscape:collect="always"
       id="linearGradient19960">
      <stop
         style="stop-color:#ffff00;stop-opacity:1;"
         offset="0"
         id="stop19962" />
      <stop
         style="stop-color:#ffff29;stop-opacity:1"
         offset="1"
         id="stop19964" />
    </linearGradient>
    <linearGradient
       inkscape:collect="always"
       id="linearGradient19952">
      <stop
         style="stop-color:#ffff00;stop-opacity:1;"
         offset="0"
         id="stop19954" />
      <stop
         style="stop-color:#ffff29;stop-opacity:1"
         offset="1"
         id="stop19956" />
    </linearGradient>
    <linearGradient
       inkscape:collect="always"
       id="linearGradient19944">
      <stop
         style="stop-color:#ffff00;stop-opacity:1;"
         offset="0"
         id="stop19946" />
      <stop
         style="stop-color:#ffff21;stop-opacity:1"
         offset="1"
         id="stop19948" />
    </linearGradient>
    <linearGradient
       inkscape:collect="always"
       id="linearGradient19936">
      <stop
         style="stop-color:#ffff00;stop-opacity:1;"
         offset="0"
         id="stop19938" />
      <stop
         style="stop-color:#ffff44;stop-opacity:1"
         offset="1"
         id="stop19940" />
    </linearGradient>
    <linearGradient
       inkscape:collect="always"
       id="linearGradient19928">
      <stop
         style="stop-color:#ffff00;stop-opacity:1;"
         offset="0"
         id="stop19930" />
      <stop
         style="stop-color:#ffff41;stop-opacity:1"
         offset="1"
         id="stop19932" />
    </linearGradient>
    <linearGradient
       inkscape:collect="always"
       id="linearGradient19920">
      <stop
         style="stop-color:#ffff00;stop-opacity:1;"
         offset="0"
         id="stop19922" />
      <stop
         style="stop-color:#ffff47;stop-opacity:1"
         offset="1"
         id="stop19924" />
    </linearGradient>
    <linearGradient
       inkscape:collect="always"
       id="linearGradient19912">
      <stop
         style="stop-color:#ffff00;stop-opacity:1;"
         offset="0"
         id="stop19914" />
      <stop
         style="stop-color:#ffff3e;stop-opacity:1"
         offset="1"
         id="stop19916" />
    </linearGradient>
    <linearGradient
       inkscape:collect="always"
       id="linearGradient19904">
      <stop
         style="stop-color:#ffff00;stop-opacity:1;"
         offset="0"
         id="stop19906" />
      <stop
         style="stop-color:#ffffbb;stop-opacity:1"
         offset="1"
         id="stop19908" />
    </linearGradient>
    <linearGradient
       inkscape:collect="always"
       id="linearGradient19896">
      <stop
         style="stop-color:#ffff00;stop-opacity:1;"
         offset="0"
         id="stop19898" />
      <stop
         style="stop-color:#ffba00;stop-opacity:1"
         offset="1"
         id="stop19900" />
    </linearGradient>
    <linearGradient
       inkscape:collect="always"
       id="linearGradient19888">
      <stop
         style="stop-color:#ffe300;stop-opacity:1;"
         offset="0"
         id="stop19890" />
      <stop
         style="stop-color:#ffff00;stop-opacity:1"
         offset="1"
         id="stop19892" />
    </linearGradient>
    <linearGradient
       inkscape:collect="always"
       id="linearGradient19880">
      <stop
         style="stop-color:#ffe400;stop-opacity:1"
         offset="0"
         id="stop19882" />
      <stop
         style="stop-color:#ffff00;stop-opacity:1"
         offset="1"
         id="stop19884" />
    </linearGradient>
    <filter
       inkscape:collect="always"
       id="filter19436"
       color-interpolation-filters="sRGB">
      <feGaussianBlur
         inkscape:collect="always"
         stdDeviation="1.1730779"
         id="feGaussianBlur19438" />
    </filter>
    <filter
       inkscape:collect="always"
       id="filter19462"
       color-interpolation-filters="sRGB">
      <feGaussianBlur
         inkscape:collect="always"
         stdDeviation="3.5427521"
         id="feGaussianBlur19464" />
    </filter>
    <filter
       inkscape:collect="always"
       id="filter19507"
       x="-0.10264662"
       width="1.2052932"
       y="-0.063237533"
       height="1.1264751"
       color-interpolation-filters="sRGB">
      <feGaussianBlur
         inkscape:collect="always"
         stdDeviation="5.3727201"
         id="feGaussianBlur19509" />
    </filter>
    <filter
       inkscape:collect="always"
       id="filter19553"
       color-interpolation-filters="sRGB">
      <feGaussianBlur
         inkscape:collect="always"
         stdDeviation="5.1864718"
         id="feGaussianBlur19555" />
    </filter>
    <filter
       inkscape:collect="always"
       id="filter19580"
       color-interpolation-filters="sRGB">
      <feGaussianBlur
         inkscape:collect="always"
         stdDeviation="2.5094851"
         id="feGaussianBlur19582" />
    </filter>
    <filter
       inkscape:collect="always"
       id="filter19599"
       color-interpolation-filters="sRGB">
      <feGaussianBlur
         inkscape:collect="always"
         stdDeviation="0.85382435"
         id="feGaussianBlur19601" />
    </filter>
    <filter
       inkscape:collect="always"
       id="filter19612"
       color-interpolation-filters="sRGB">
      <feGaussianBlur
         inkscape:collect="always"
         stdDeviation="0.57624729"
         id="feGaussianBlur19614" />
    </filter>
    <filter
       inkscape:collect="always"
       id="filter19617"
       color-interpolation-filters="sRGB">
      <feGaussianBlur
         inkscape:collect="always"
         stdDeviation="0.79436497"
         id="feGaussianBlur19619" />
    </filter>
    <filter
       inkscape:collect="always"
       id="filter19621"
       color-interpolation-filters="sRGB">
      <feGaussianBlur
         inkscape:collect="always"
         stdDeviation="0.6692198"
         id="feGaussianBlur19623" />
    </filter>
    <filter
       inkscape:collect="always"
       id="filter19650"
       color-interpolation-filters="sRGB">
      <feGaussianBlur
         inkscape:collect="always"
         stdDeviation="1.4551561"
         id="feGaussianBlur19652" />
    </filter>
    <filter
       inkscape:collect="always"
       id="filter19660"
       color-interpolation-filters="sRGB">
      <feGaussianBlur
         inkscape:collect="always"
         stdDeviation="2.0223612"
         id="feGaussianBlur19662" />
    </filter>
    <filter
       inkscape:collect="always"
       id="filter19690"
       color-interpolation-filters="sRGB">
      <feGaussianBlur
         inkscape:collect="always"
         stdDeviation="0.58864107"
         id="feGaussianBlur19692" />
    </filter>
    <filter
       inkscape:collect="always"
       id="filter19720"
       x="-0.037764642"
       width="1.0755293"
       y="-0.14591007"
       height="1.29182"
       color-interpolation-filters="sRGB">
      <feGaussianBlur
         inkscape:collect="always"
         stdDeviation="1.1144209"
         id="feGaussianBlur19722" />
    </filter>
    <filter
       inkscape:collect="always"
       id="filter19747"
       color-interpolation-filters="sRGB">
      <feGaussianBlur
         inkscape:collect="always"
         stdDeviation="5.2560869"
         id="feGaussianBlur19749" />
    </filter>
    <filter
       inkscape:collect="always"
       id="filter19792"
       x="-0.10764816"
       width="1.2152963"
       y="-0.13555381"
       height="1.2711076"
       color-interpolation-filters="sRGB">
      <feGaussianBlur
         inkscape:collect="always"
         stdDeviation="1.9691826"
         id="feGaussianBlur19794" />
    </filter>
    <filter
       inkscape:collect="always"
       id="filter19828"
       x="-0.036136605"
       width="1.0722733"
       y="-0.17666088"
       height="1.3533218"
       color-interpolation-filters="sRGB">
      <feGaussianBlur
         inkscape:collect="always"
         stdDeviation="4.113855"
         id="feGaussianBlur19830" />
    </filter>
    <filter
       inkscape:collect="always"
       id="filter19871"
       color-interpolation-filters="sRGB">
      <feGaussianBlur
         inkscape:collect="always"
         stdDeviation="2.6478271"
         id="feGaussianBlur19873" />
    </filter>
    <linearGradient
       inkscape:collect="always"
       xlink:href="#linearGradient19880"
       id="linearGradient19886"
       x1="3352.7146"
       y1="-1063.7936"
       x2="3508.7524"
       y2="-1063.7936"
       gradientUnits="userSpaceOnUse" />
    <linearGradient
       inkscape:collect="always"
       xlink:href="#linearGradient19888"
       id="linearGradient19894"
       x1="2117.6021"
       y1="-752.0426"
       x2="2183.9558"
       y2="-745.38324"
       gradientUnits="userSpaceOnUse" />
    <linearGradient
       inkscape:collect="always"
       xlink:href="#linearGradient19896"
       id="linearGradient19902"
       x1="521.50275"
       y1="-168.96588"
       x2="569.92731"
       y2="-173.62209"
       gradientUnits="userSpaceOnUse" />
    <linearGradient
       inkscape:collect="always"
       xlink:href="#linearGradient19904"
       id="linearGradient19910"
       x1="2086.7617"
       y1="-739.0791"
       x2="1989.5673"
       y2="-743.05511"
       gradientUnits="userSpaceOnUse" />
    <linearGradient
       inkscape:collect="always"
       xlink:href="#linearGradient19912"
       id="linearGradient19918"
       x1="3367.9663"
       y1="-1053.2346"
       x2="3294.0537"
       y2="-1047.3685"
       gradientUnits="userSpaceOnUse" />
    <linearGradient
       inkscape:collect="always"
       xlink:href="#linearGradient19920"
       id="linearGradient19926"
       x1="2356.8486"
       y1="-1045.0221"
       x2="2294.6682"
       y2="-1043.8489"
       gradientUnits="userSpaceOnUse" />
    <linearGradient
       inkscape:collect="always"
       xlink:href="#linearGradient19928"
       id="linearGradient19934"
       x1="1128.2139"
       y1="-681.29376"
       x2="1073.0728"
       y2="-677.77411"
       gradientUnits="userSpaceOnUse" />
    <linearGradient
       inkscape:collect="always"
       xlink:href="#linearGradient19936"
       id="linearGradient19942"
       x1="1200.7615"
       y1="-433.18753"
       x2="996.6217"
       y2="-434.36075"
       gradientUnits="userSpaceOnUse" />
    <linearGradient
       inkscape:collect="always"
       xlink:href="#linearGradient19944"
       id="linearGradient19950"
       x1="1291.891"
       y1="-532.34985"
       x2="1255.7289"
       y2="-538.26727"
       gradientUnits="userSpaceOnUse" />
    <linearGradient
       inkscape:collect="always"
       xlink:href="#linearGradient19952"
       id="linearGradient19958"
       x1="1528.4254"
       y1="-520.19153"
       x2="1487.3628"
       y2="-520.19153"
       gradientUnits="userSpaceOnUse" />
    <linearGradient
       inkscape:collect="always"
       xlink:href="#linearGradient19960"
       id="linearGradient19966"
       x1="2021.4824"
       y1="-726.36688"
       x2="1927.625"
       y2="-719.32758"
       gradientUnits="userSpaceOnUse" />
  </defs>
  <sodipodi:namedview
     id="base"
     pagecolor="#7d848b"
     bordercolor="#666666"
     borderopacity="1.0"
     inkscape:pageopacity="0"
     inkscape:pageshadow="2"
     inkscape:zoom="0.1506769"
     inkscape:cx="-593.38544"
     inkscape:cy="-586.47822"
     inkscape:document-units="px"
     inkscape:current-layer="layer1"
     showgrid="false"
     inkscape:pagecheckerboard="false"
     showborder="true"
     units="px"
     inkscape:window-width="1920"
     inkscape:window-height="1017"
     inkscape:window-x="-8"
     inkscape:window-y="-8"
     inkscape:window-maximized="1"
     inkscape:showpageshadow="false"
     guidetolerance="28"
     fit-margin-top="0"
     fit-margin-left="0"
     fit-margin-right="0"
     fit-margin-bottom="0">
    <inkscape:grid
       type="xygrid"
       id="grid24034"
       spacingx="1px"
       spacingy="1px"
       empspacing="8"
       visible="true"
       enabled="true"
       snapvisiblegridlinesonly="true"
       originx="-1074.4777px"
       originy="-1631.9475px" />
  </sodipodi:namedview>
  <metadata
     id="metadata23486">
    <rdf:RDF>
      <cc:Work
         rdf:about="">
        <dc:format>image/svg+xml</dc:format>
        <dc:type
           rdf:resource="http://purl.org/dc/dcmitype/StillImage" />
        <dc:title></dc:title>
        <cc:license
           rdf:resource="" />
        <dc:creator>
          <cc:Agent>
            <dc:title>Robert Brooks</dc:title>
          </cc:Agent>
        </dc:creator>
      </cc:Work>
    </rdf:RDF>
  </metadata>
  <g
     inkscape:label="Layer 1"
     inkscape:groupmode="layer"
     id="layer1"
     transform="translate(-284.2889,376.75571)">
    <g
       id="g19478"
       transform="matrix(1.1103755,0,0,1.1103755,-315.07157,-133.79366)"
       inkscape:export-filename="C:\Users\rober\Desktop\assets\ASSETS_2022\effects\muzzle_effects\pngs\muzzle_flare_02.png"
       inkscape:export-xdpi="90"
       inkscape:export-ydpi="90">
      <path
         transform="matrix(0.26458334,0,0,0.26458334,328.8044,18.562493)"
         inkscape:connector-curvature="0"
         id="path19440"
         d="m 1163.7188,-732.59375 c -7.4672,0.82521 -14.653,3.12569 -21.8877,5.04138 -7.9457,2.20846 -15.8318,4.62147 -23.6986,7.09456 -5.5722,1.81996 -11.2057,3.50604 -16.57,5.89531 -2.8036,1.272 -5.6476,2.53882 -8.0937,4.4375 -3.286,2.80752 -6.5838,5.71175 -9.3618,9.06268 -1.5151,1.63624 -2.9312,3.39221 -3.8237,5.45879 -1.4094,2.87246 -2.7,5.82983 -3.5576,8.91929 -1.45,5.6473 -1.6721,11.61648 -0.6316,17.35258 0.8526,4.51621 2.6851,8.80728 4.8806,12.80276 1.4765,2.26918 3.4317,4.18997 5.2903,6.16311 2.2822,2.24657 4.6484,4.40018 7.1964,6.32243 5.4032,3.2287 11.4406,5.17441 17.3239,7.33456 10.8825,3.8131 21.9169,7.32834 33.2804,9.39694 6.8918,1.29755 13.8908,1.85854 20.8405,2.74936 -2.7752,-3.74502 -5.9738,-7.1944 -9.069,-10.69736 -5.0927,-5.46138 -10.6313,-10.48938 -15.6497,-16.02139 -0.1088,-0.61926 -0.5552,-1.08551 -0.8437,-1.625 4.8604,-0.50746 9.7303,-0.90582 14.6061,-1.23367 9.2808,-0.63081 18.5239,-1.71169 27.8042,-2.34871 6.6918,-0.55052 13.3792,-1.28535 20.1019,-1.28752 5.5758,-0.0536 11.1594,0.11241 16.7294,-0.17126 4.7713,-0.46518 9.4356,-1.63766 14.1088,-2.66285 2.3105,-0.48506 4.5367,-1.329 6.8683,-1.70224 4.7446,-0.30713 9.475,0.48129 14.2184,0.45024 3.4517,-0.0781 6.867,-0.68404 10.3189,-0.79981 7.1178,-0.44324 14.2619,-0.32227 21.3727,-0.91276 4.4221,-0.35571 8.8177,-1.02955 13.1213,-2.11267 2.7051,-0.68809 5.4997,-0.8548 8.2812,-0.8125 4.5943,-0.016 9.3219,0.41976 13.762,-1.03847 3.5103,-0.85796 7.2472,-0.44564 10.6755,-1.68028 0.8999,-0.77656 0.8971,-2.4013 -0.04,-3.16446 -1.4936,-1.20859 -3.4949,-1.63362 -5.3042,-2.24179 -7.1938,-1.91531 -14.545,-3.16291 -21.892,-4.31438 -2.2443,-0.25491 -4.5735,-0.12834 -6.6793,0.73975 -1.4722,0.47871 -3.0515,0.14328 -4.3872,-0.5663 -3.6234,-1.50176 -7.4735,-2.34156 -11.2368,-3.41184 -9.7397,-2.61248 -19.5909,-4.81878 -29.5197,-6.58201 -3.8755,-0.58879 -7.7761,-1.17863 -11.7036,-1.19946 -2.8413,0.13917 -5.6133,0.9286 -8.4688,0.93632 -2.7093,0.0867 -5.4491,-0.0956 -8.1083,-0.5843 -1.3113,-0.63785 -2.3932,-1.67115 -3.6108,-2.46962 -1.4928,-1.07982 -2.9631,-2.55517 -4.8272,-3.19363 -2.4862,-0.94176 -5.2083,-0.71827 -7.7704,-0.25571 -3.4573,0.48524 -7.064,0.71846 -10.4313,-0.38796 -3.6547,-0.88806 -7.3161,-1.81527 -11.0735,-2.13991 -5.5182,-0.7624 -11.0369,-1.62504 -16.4347,-3.0175 -8.1559,-1.64315 -16.5313,-1.39578 -24.7513,-2.52339 -1.8124,-0.32258 -3.6364,-0.61775 -5.4177,-1.09256 0.7406,-0.91769 1.8109,-1.81719 2.6796,-2.73461 7.6878,-7.59083 15.337,-15.22098 23.0704,-22.76539 0.5643,-0.64775 0.1098,-1.87925 -0.5624,-2.15625 -0.2926,-0.19813 -0.7407,-0.32825 -1.125,-0.25 z"
         style="opacity:0.77876108;color:#000000;fill:#ff6600;fill-opacity:1;fill-rule:nonzero;stroke:#ffa200;stroke-width:10;stroke-opacity:1;marker:none;visibility:visible;display:inline;overflow:visible;filter:url(#filter19462);enable-background:accumulate" />
      <path
         sodipodi:nodetypes="ccscccscscccccscsssscssssssccsc"
         inkscape:connector-curvature="0"
         id="path18919"
         d="m 636.67193,-174.91407 c -1.40991,0.007 -10.28626,2.56587 -14.84079,4.17093 -10.42607,3.51193 -10.89912,16.10897 -1.09887,19.74905 7.68236,2.85344 11.41561,3.50204 15.47437,3.84324 -2.86502,-3.7448 -7.46406,-7.12947 -6.25684,-7.34897 2.16569,-0.29822 6.30475,-0.40868 8.67569,-0.77411 0.87799,0 6.35896,-0.54803 7.01746,-0.54803 l 5.59758,0 c 0,0 4.17015,-0.76216 4.82864,-1.0914 0.51687,-0.25843 2.724,-0.0791 4.23334,0.0406 0.48752,-0.0351 0.82161,-0.0599 1.26505,-0.0909 0.65757,-0.12447 1.86616,-0.1893 3.08406,-0.2067 0.0442,-0.003 0.0646,-0.006 0.10748,-0.008 0.036,-5.3e-4 0.0715,2.7e-4 0.10747,0 0.8786,-0.0514 1.47839,-0.0787 1.62885,-0.0661 1.31697,0.10974 4.39042,-0.33073 4.39042,-0.33073 0,0 1.87084,-0.54571 2.96831,-0.54571 1.09749,0 3.51097,0.106 4.05971,-0.22324 0.54875,-0.32924 4.05604,-0.1082 2.62927,-0.87643 -1.0673,-0.57469 -6.03422,-1.42892 -7.02199,-1.53867 -0.98771,-0.10974 -1.64155,0.65623 -2.62927,0.10749 -0.98777,-0.54874 -12.29325,-3.39902 -14.26871,-2.96003 -1.97546,0.43899 -3.62069,0.10749 -4.05972,0.10749 -0.43897,0 -1.5423,-1.31614 -2.53005,-1.64538 -0.98774,-0.32924 -2.51793,0.55178 -4.71291,-0.10671 -2.19496,-0.65849 -4.61508,-0.66068 -6.15157,-1.09967 -1.53649,-0.439 -3.94464,-0.65319 -4.71286,-0.65319 -0.76827,0 -5.2052,-0.35893 -4.6137,-0.8847 0.98777,-0.87798 3.83929,-3.84157 6.91224,-6.80476 0.15616,-0.15056 0.11875,-0.21601 -0.0827,-0.21497 z"
         style="color:#000000;fill:#ffe400;fill-opacity:1;fill-rule:nonzero;stroke:none;stroke-width:10;marker:none;visibility:visible;display:inline;overflow:visible;enable-background:accumulate" />
      <path
         sodipodi:nodetypes="cscccscsssssccc"
         inkscape:connector-curvature="0"
         id="path19432"
         d="m 613.81945,-158.78262 c -0.878,-4.71915 1.97546,-8.01159 5.37763,-9.32856 3.4022,-1.31697 8.23108,-2.19496 7.79208,-1.86571 -0.43897,0.32924 -2.52418,4.6094 -2.52418,4.6094 0,0 5.48738,2.19496 6.36538,1.86572 0.87796,-0.32925 5.92637,1.09747 7.57258,1.20722 1.64622,0.10975 6.25563,1.09748 7.13362,0.65849 0.87797,-0.43899 10.86504,1.75596 12.51125,1.53647 1.64621,-0.2195 9.54804,0 8.34083,0.54874 -1.20724,0.54874 -10.31629,0.21949 -11.85278,0.54874 -1.53646,0.32924 -9.2188,0.10974 -11.19426,0.21949 -1.97545,0.10975 -8.56033,1.09748 -9.76757,0.87798 -1.20721,-0.21949 -4.49966,0.65849 -9.76757,0.98773 -0.32922,0.32925 3.73145,5.81664 2.9632,5.37764 -5.26891,-0.96945 -11.21211,-2.31153 -12.95021,-7.24335 z"
         style="color:#000000;fill:#ffff00;fill-opacity:1;fill-rule:nonzero;stroke:none;stroke-width:10;marker:none;visibility:visible;display:inline;overflow:visible;enable-background:accumulate" />
      <path
         style="color:#000000;fill:url(#linearGradient19934);fill-opacity:1;fill-rule:nonzero;stroke:none;stroke-width:10;marker:none;visibility:visible;display:inline;overflow:visible;filter:url(#filter19436);enable-background:accumulate"
         d="m 1077.2222,-670.28072 c -3.3184,-17.83618 7.4663,-30.28002 20.3249,-35.25755 12.8587,-4.97754 31.1096,-8.29591 29.4504,-7.05152 -1.6591,1.24438 -9.5402,17.42138 -9.5402,17.42138 0,0 20.7397,8.2959 24.0581,7.05152 3.3183,-1.24439 22.3989,4.14794 28.6208,4.56274 6.2219,0.41479 23.6433,4.14794 26.9617,2.48876 3.3183,-1.65918 41.0647,6.63672 47.2866,5.80713 6.2219,-0.82959 36.0871,0 31.5244,2.07397 -4.5628,2.07398 -38.9907,0.82959 -44.7979,2.07398 -5.8071,1.24438 -34.8427,0.41479 -42.309,0.82959 -7.4663,0.41479 -32.354,4.14795 -36.9168,3.31836 -4.5627,-0.82959 -17.0066,2.48877 -36.9168,3.73315 -1.2443,1.24439 14.1031,21.98412 11.1995,20.32494 -19.914,-3.66406 -42.3765,-8.7365 -48.9457,-27.37645 z"
         id="path19434"
         inkscape:connector-curvature="0"
         transform="matrix(0.26458334,0,0,0.26458334,328.8044,18.562493)"
         sodipodi:nodetypes="cscccscsssssccc" />
    </g>
    <g
       id="g19511"
       transform="matrix(1.440876,0,0,1.440876,-129.24562,-152.23894)"
       inkscape:export-filename="C:\Users\rober\Desktop\assets\ASSETS_2022\effects\muzzle_effects\pngs\muzzle_flare_03.png"
       inkscape:export-xdpi="90"
       inkscape:export-ydpi="90">
      <path
         style="color:#000000;fill:#ffe400;fill-opacity:1;fill-rule:nonzero;stroke:#ff9000;stroke-width:10;stroke-opacity:1;marker:none;visibility:visible;display:inline;overflow:visible;filter:url(#filter19507);enable-background:accumulate"
         d="m 1590.2812,-641.1875 c -2.0531,0 -0.5574,7.62191 -1.4374,13.78125 -0.8799,6.15942 -2.6393,10.86204 -3.8126,18.78125 -1.1733,7.91924 -4.1129,14.66025 -3.5263,19.35312 -0.2933,4.10626 0.8558,9.38927 -0.3174,12.61563 -1.1732,3.22632 -4.6733,14.08614 -3.5,17.3125 1.1732,3.22636 2.3336,8.81202 7.9063,12.625 2.3464,2.34644 7.0598,3.51474 9.4062,0.875 1.3071,-1.47058 7.613,-7.91785 7.9062,-11.4375 0.2933,-3.51965 -1.7692,-14.9781 -2.0624,-17.03125 -0.2933,-2.05311 -2.3318,-8.49014 -2.625,-10.25 -0.2933,-1.75982 1.7428,-9.10535 1.1562,-12.625 -0.5866,-3.51965 -2.0406,-9.67233 -4.0938,-16.125 -2.0531,-6.45271 -2.3317,-15.85044 -2.625,-20.25 -0.2932,-4.3996 -0.3218,-7.625 -2.375,-7.625 z m 28.625,81.875 c -3.7121,0.13749 -7.3363,1.3664 -8.6562,2.90625 -1.7599,2.05313 -5.0071,9.68482 -5.5938,12.03125 -0.5866,2.34643 2.6584,9.96606 4.125,12.3125 1.4666,2.34643 4.3794,4.97589 8.4858,4.97589 5.5728,0.58661 12.0307,-3.22098 14.6705,-4.10089 2.6397,-0.87991 4.6897,-3.53125 6.1563,-3.53125 1.4666,0 9.9732,3.24509 12.9062,4.125 2.9331,0.87991 12.317,-1.19464 15.25,-1.78125 2.9331,-0.5866 13.4972,-4.09375 15.8438,-4.09375 2.3464,0 14.0861,-1.4759 17.3124,-2.0625 3.2265,-0.58661 4.392,-1.75714 3.2188,-2.34375 -1.1732,-0.58661 -19.6414,-3.80758 -22.2812,-4.6875 -2.6398,-0.87991 -21.6943,-6.17054 -26.0938,-7.34375 -4.3996,-1.17322 -9.971,-2.04821 -11.4375,-0.875 -1.4665,1.17322 -2.0839,4.11294 -3.8437,4.40625 -1.76,0.2933 -4.0791,-4.39643 -6.7188,-6.15625 -2.6398,-1.75983 -9.6875,-3.53125 -9.6875,-3.53125 -1.1732,-0.21998 -2.4189,-0.29583 -3.6563,-0.25 z m -27.9374,25.1875 c -1.9695,0.10762 -4.0552,1.08638 -5.375,2.40625 -5.5727,3.81298 -6.7331,9.36739 -7.9063,12.59375 -1.1733,3.22636 2.3268,14.08618 3.5,17.3125 1.1732,3.22636 -0.5625,10.5625 -0.5625,10.5625 0,0 3.2329,13.48701 4.4062,21.40625 1.1733,7.91921 2.9327,12.62183 3.8126,18.78125 0.88,6.15933 -0.6157,13.78125 1.4374,13.78125 2.0532,0 2.0818,-3.2254 2.375,-7.625 0.2933,-4.39954 0.5719,-13.79729 2.625,-20.25 2.0532,-6.45267 3.5072,-12.60535 4.0938,-16.125 0.5866,-3.51965 -1.4495,-10.86518 -1.1562,-12.625 0.2932,-1.75986 2.3317,-8.19689 2.625,-10.25 0.2932,-2.05315 2.3557,-13.5116 2.0624,-17.03125 -0.2932,-3.51965 -6.5991,-9.96692 -7.9062,-11.4375 -1.0266,-1.15488 -2.4994,-1.58371 -4.0312,-1.5 z"
         transform="matrix(0.26458334,0,0,0.26458334,-6.3049604e-6,18.562493)"
         id="path19497"
         inkscape:connector-curvature="0"
         sodipodi:nodetypes="scscsccccccsccssscsccssssssssscccssccscscsccsccccs" />
      <path
         sodipodi:nodetypes="scscsccccccsccssscsccssssssssscccssccscscsccsccccs"
         inkscape:connector-curvature="0"
         id="path19484"
         transform="matrix(0.26458334,0,0,0.26458334,-6.3049604e-6,18.562493)"
         d="m 1590.2812,-641.1875 c -2.0531,0 -0.5574,7.62191 -1.4374,13.78125 -0.8799,6.15942 -2.6393,10.86204 -3.8126,18.78125 -1.1733,7.91924 -4.1129,14.66025 -3.5263,19.35312 -0.2933,4.10626 0.8558,9.38927 -0.3174,12.61563 -1.1732,3.22632 -4.6733,14.08614 -3.5,17.3125 1.1732,3.22636 2.3336,8.81202 7.9063,12.625 2.3464,2.34644 7.0598,3.51474 9.4062,0.875 1.3071,-1.47058 7.613,-7.91785 7.9062,-11.4375 0.2933,-3.51965 -1.7692,-14.9781 -2.0624,-17.03125 -0.2933,-2.05311 -2.3318,-8.49014 -2.625,-10.25 -0.2933,-1.75982 1.7428,-9.10535 1.1562,-12.625 -0.5866,-3.51965 -2.0406,-9.67233 -4.0938,-16.125 -2.0531,-6.45271 -2.3317,-15.85044 -2.625,-20.25 -0.2932,-4.3996 -0.3218,-7.625 -2.375,-7.625 z m 28.625,81.875 c -3.7121,0.13749 -7.3363,1.3664 -8.6562,2.90625 -1.7599,2.05313 -5.0071,9.68482 -5.5938,12.03125 -0.5866,2.34643 2.6584,9.96606 4.125,12.3125 1.4666,2.34643 4.3794,4.97589 8.4858,4.97589 5.5728,0.58661 12.0307,-3.22098 14.6705,-4.10089 2.6397,-0.87991 4.6897,-3.53125 6.1563,-3.53125 1.4666,0 9.9732,3.24509 12.9062,4.125 2.9331,0.87991 12.317,-1.19464 15.25,-1.78125 2.9331,-0.5866 13.4972,-4.09375 15.8438,-4.09375 2.3464,0 14.0861,-1.4759 17.3124,-2.0625 3.2265,-0.58661 4.392,-1.75714 3.2188,-2.34375 -1.1732,-0.58661 -19.6414,-3.80758 -22.2812,-4.6875 -2.6398,-0.87991 -21.6943,-6.17054 -26.0938,-7.34375 -4.3996,-1.17322 -9.971,-2.04821 -11.4375,-0.875 -1.4665,1.17322 -2.0839,4.11294 -3.8437,4.40625 -1.76,0.2933 -4.0791,-4.39643 -6.7188,-6.15625 -2.6398,-1.75983 -9.6875,-3.53125 -9.6875,-3.53125 -1.1732,-0.21998 -2.4189,-0.29583 -3.6563,-0.25 z m -27.9374,25.1875 c -1.9695,0.10762 -4.0552,1.08638 -5.375,2.40625 -5.5727,3.81298 -6.7331,9.36739 -7.9063,12.59375 -1.1733,3.22636 2.3268,14.08618 3.5,17.3125 1.1732,3.22636 -0.5625,10.5625 -0.5625,10.5625 0,0 3.2329,13.48701 4.4062,21.40625 1.1733,7.91921 2.9327,12.62183 3.8126,18.78125 0.88,6.15933 -0.6157,13.78125 1.4374,13.78125 2.0532,0 2.0818,-3.2254 2.375,-7.625 0.2933,-4.39954 0.5719,-13.79729 2.625,-20.25 2.0532,-6.45267 3.5072,-12.60535 4.0938,-16.125 0.5866,-3.51965 -1.4495,-10.86518 -1.1562,-12.625 0.2932,-1.75986 2.3317,-8.19689 2.625,-10.25 0.2932,-2.05315 2.3557,-13.5116 2.0624,-17.03125 -0.2932,-3.51965 -6.5991,-9.96692 -7.9062,-11.4375 -1.0266,-1.15488 -2.4994,-1.58371 -4.0312,-1.5 z"
         style="color:#000000;fill:#ffe400;fill-opacity:1;fill-rule:nonzero;stroke:none;stroke-width:10;marker:none;visibility:visible;display:inline;overflow:visible;enable-background:accumulate" />
      <path
         style="color:#000000;fill:#ffff00;fill-opacity:1;fill-rule:nonzero;stroke:none;stroke-width:10;marker:none;visibility:visible;display:inline;overflow:visible;filter:url(#filter19621);enable-background:accumulate"
         d="m 2866.2188,-1130.5938 c -0.8004,0.2988 -0.7813,11.3265 -0.7813,14.9688 0,3.8851 -1.9575,9.3962 -2.2813,13.2812 -0.3237,3.8851 -1.2837,6.4812 -0.3124,9.7188 0.9712,3.2376 -0.015,10.6712 -2.2813,12.9375 -2.2664,2.2663 -3.5602,12.9361 3.5625,17.4687 0,0 7.77,0.3339 8.0938,-3.875 0.3237,-4.2088 -1.29,-5.8161 -1.9376,-8.4062 -0.6475,-2.5901 1.625,-5.2025 1.625,-7.4688 0,-2.2663 -1.6337,-5.8049 -2.2812,-8.7187 -0.6475,-2.9138 0.3438,-9.3962 0.3438,-13.2813 0,-3.885 -1.3013,-9.0661 -1.625,-11.6562 -0.3238,-2.5901 -0.9663,-13.6112 -1.9376,-14.9062 -0.061,-0.081 -0.1341,-0.083 -0.1874,-0.063 z m 25.375,61.875 c -2.0033,-0.045 -3.8126,0.6876 -3.8126,0.6876 -6.7989,3.5613 -5.8462,7.7711 -4.875,11.6562 0.9713,3.8851 6.1687,5.4862 9.4063,6.7812 3.2375,1.2951 7.1175,-0.2936 10.0313,-3.5312 2.9138,-3.2376 8.4123,-2.6163 10.0312,-1.9688 1.6188,0.6476 9.0662,0.3238 11.6562,0 2.5901,-0.3237 8.0938,-0.625 8.0938,-0.625 0,0 -0.965,-0.02 1.625,-0.3437 2.5901,-0.3238 9.7062,0.02 14.5625,0.3437 4.8564,0.3238 9.4011,-0.3237 11.3437,0 1.9426,0.3238 3.8601,-0.3212 1.5938,-0.9687 -2.2663,-0.6475 -13.26,-2.6112 -17.4688,-3.9063 -4.2089,-1.295 -13.9186,1.6276 -17.1562,0.6563 -3.2375,-0.9713 -17.8075,-3.8975 -19.75,-3.25 -1.9425,0.6475 -1.6211,3.9026 -7.125,1.3125 -5.5039,-2.5901 -3.5662,-5.4975 -6.1562,-6.4688 -0.6476,-0.2428 -1.3323,-0.3598 -2,-0.375 z m -22.2813,19.7813 c -7.4464,0.3238 -11.3412,6.8173 -12.3125,12.9687 -0.9713,6.1515 2.5912,11.9812 3.5625,15.2188 0.9713,3.2376 3.2362,7.4274 4.5313,11.3125 1.2951,3.8851 -1.29,7.1262 -1.9376,10.6875 -0.6475,3.56134 -0.6275,5.16867 0.3438,8.40625 0.9713,3.23759 0.9462,7.13742 1.5938,10.375 0.6475,3.23758 0.3212,9.06871 0.9687,10.6875 0.6476,1.61879 1.625,1.6089 1.625,-4.21875 0,-5.82764 2.585,-10.67994 1.9375,-13.59375 -0.6475,-2.91383 -0.6475,-11.01494 0,-13.28125 0.6475,-2.2663 2.2925,-6.1399 1.9688,-8.4062 -0.3238,-2.2664 -2.6163,-12.2962 -1.9688,-14.5626 0.6475,-2.2663 5.1988,-9.721 4.875,-16.8437 -0.3238,-7.1227 -5.1875,-8.75 -5.1875,-8.75 z"
         transform="matrix(0.23969562,0,0,0.23969562,-266.22058,128.82248)"
         id="path19491"
         inkscape:connector-curvature="0" />
    </g>
    <g
       id="g19557"
       transform="matrix(1.1965884,0,0,1.1965884,-399.30716,72.089047)"
       inkscape:export-filename="C:\Users\rober\Desktop\assets\ASSETS_2022\effects\muzzle_effects\pngs\muzzle_flare_06.png"
       inkscape:export-xdpi="90"
       inkscape:export-ydpi="90">
      <path
         style="color:#000000;fill:#ffe400;fill-opacity:1;fill-rule:nonzero;stroke:#ff9000;stroke-width:10;stroke-linecap:round;stroke-linejoin:round;stroke-opacity:1;marker:none;visibility:visible;display:inline;overflow:visible;filter:url(#filter19553);enable-background:accumulate"
         d="m 2592.6875,-1165.3438 -0.25,0.8438 -1.5937,20.4375 -3,18.8437 -1.3438,15.5938 -1.5938,18.4062 c -0.1961,11.3422 -4.4274,19.7029 -0.125,26.1563 4.3024,6.4533 14.6796,3.0509 17.9063,1.4375 3.2267,-1.6133 1.569,-14.6717 1.0313,-21.125 -0.538,-6.4533 -4.1173,-21.6261 -3.2188,-25.9688 l -2,-12.9374 -2.5938,-16.125 -0.25,-13.4376 -2.9687,-12.125 z m 68.4375,59.2188 c -0.2279,0.044 -0.5295,0.1685 -1,0.4375 -3.7645,2.1511 -10.2421,11.8503 -13.4688,11.3125 -3.2267,-0.5378 -8.6234,3.7617 -11.3124,5.375 -2.689,1.6133 -2.2669,1.8801 -6.0313,4.0312 -3.7646,2.1512 -1.3981,2.8998 -4.625,3.4376 -3.2265,0.5377 -10.3312,1.3696 -14.4375,6.0624 -8.0667,6.4533 -0.707,14.9492 0.9062,16.5626 1.6133,1.6133 9.6798,3.2318 12.9063,2.1562 8.6044,-2.6889 10.7303,-10.7538 12.3437,-15.5938 1.6134,-4.8399 9.1614,-9.1665 11.3126,-13.4687 2.1511,-4.3022 2.1483,-5.8736 5.375,-8.5625 3.2266,-2.6889 5.9374,-7.5625 5.9374,-7.5625 0,0 2.0938,-2.5624 2.0938,-4.1875 z m -16.4062,44.625 c -5.1731,0.1047 -9.8126,0.9375 -9.8126,0.9375 -9.1421,4.3022 -18.0611,5.91 -20.75,10.75 -2.6887,4.84 -2.6887,5.3984 0,8.625 2.6889,3.2267 13.2175,9.112 15.9063,10.1875 2.6889,1.0756 12.4035,2.1693 17.7813,1.0938 5.3778,-1.0756 19.8526,-3.2057 26.8437,-4.2813 6.991,-1.0756 24.2198,-0.016 34.4375,-1.625 10.2179,-1.6133 25.2655,-2.1744 31.7188,-3.25 6.4532,-1.0755 14.5378,1.6017 14,-1.625 -0.5378,-3.2266 -15.0897,-3.7435 -23.1563,-4.2813 -8.0666,-0.5377 -34.9334,-8.069 -43,-7.5312 -8.0666,0.5378 -13.4479,-1.069 -17.75,-0.5312 -4.3023,0.5377 -10.1963,-5.3802 -17.1875,-7.5313 -2.6217,-0.8066 -5.9276,-1.0005 -9.0312,-0.9375 z m -22.5626,28.3438 c -16.5562,0.9953 -14.9106,17.4393 -3.375,23.6562 3.2267,1.6133 5.4063,3.2551 5.4063,5.4062 0,2.1512 2.6563,5.9063 2.6563,5.9063 0,0 4.3047,3.74859 7.5312,6.4375 3.2267,2.68887 2.6729,2.19784 6.4375,6.5 3.7643,4.3022 5.9375,5.90625 5.9375,5.90625 0,0 -1.6303,-2.14697 -3.7812,-8.0625 -2.1512,-5.91553 -4.293,-11.84234 -5.9063,-14.53125 -1.6134,-2.6889 -1.63,-9.6861 -3.7813,-12.375 -2.1509,-2.6889 -1.625,-4.293 -1.625,-5.9063 0.8699,-9.9979 -2.585,-9.4912 -6.9687,-12.9374 -0.9074,-0.034 -1.7298,-0.023 -2.5313,0 z m -28.4062,4.25 c -3.1672,0.023 -6.293,0.9865 -8.2188,3.875 -4.4018,6.6022 -0.076,15.1462 0.125,26.74995 l 1.625,18.84375 1.375,15.96875 3.0626,19.25 1.6562,20.90625 0.25,0.875 3,-12.40625 0.2812,-13.75 2.625,-16.5 2.0938,-13.21875 c 0.7002,-4.48252 2.6997,-19.96035 3.25,-26.5625 0.5502,-6.6022 2.2699,-19.9745 -1.0312,-21.625 -1.8569,-0.9285 -6.0217,-2.4353 -10.0938,-2.4062 z"
         transform="matrix(0.26458334,0,0,0.26458334,-6.3049604e-6,18.562493)"
         id="path19543"
         inkscape:connector-curvature="0" />
      <path
         id="path19518"
         transform="matrix(0.26458334,0,0,0.26458334,-6.3049604e-6,18.562493)"
         d="m 2592.6875,-1165.3438 -0.25,0.8438 -1.5937,20.4375 -3,18.8437 -1.3438,15.5938 -1.5938,18.4062 c -0.1961,11.3422 -4.4274,19.7029 -0.125,26.1563 4.3024,6.4533 14.6796,3.0509 17.9063,1.4375 3.2267,-1.6133 1.569,-14.6717 1.0313,-21.125 -0.538,-6.4533 -4.1173,-21.6261 -3.2188,-25.9688 l -2,-12.9374 -2.5938,-16.125 -0.25,-13.4376 -2.9687,-12.125 z m 68.4375,59.2188 c -0.2279,0.044 -0.5295,0.1685 -1,0.4375 -3.7645,2.1511 -10.2421,11.8503 -13.4688,11.3125 -3.2267,-0.5378 -8.6234,3.7617 -11.3124,5.375 -2.689,1.6133 -2.2669,1.8801 -6.0313,4.0312 -3.7646,2.1512 -1.3981,2.8998 -4.625,3.4376 -3.2265,0.5377 -10.3312,1.3696 -14.4375,6.0624 -8.0667,6.4533 -0.707,14.9492 0.9062,16.5626 1.6133,1.6133 9.6798,3.2318 12.9063,2.1562 8.6044,-2.6889 10.7303,-10.7538 12.3437,-15.5938 1.6134,-4.8399 9.1614,-9.1665 11.3126,-13.4687 2.1511,-4.3022 2.1483,-5.8736 5.375,-8.5625 3.2266,-2.6889 5.9374,-7.5625 5.9374,-7.5625 0,0 2.0938,-2.5624 2.0938,-4.1875 z m -16.4062,44.625 c -5.1731,0.1047 -9.8126,0.9375 -9.8126,0.9375 -9.1421,4.3022 -18.0611,5.91 -20.75,10.75 -2.6887,4.84 -2.6887,5.3984 0,8.625 2.6889,3.2267 13.2175,9.112 15.9063,10.1875 2.6889,1.0756 12.4035,2.1693 17.7813,1.0938 5.3778,-1.0756 19.8526,-3.2057 26.8437,-4.2813 6.991,-1.0756 24.2198,-0.016 34.4375,-1.625 10.2179,-1.6133 25.2655,-2.1744 31.7188,-3.25 6.4532,-1.0755 14.5378,1.6017 14,-1.625 -0.5378,-3.2266 -15.0897,-3.7435 -23.1563,-4.2813 -8.0666,-0.5377 -34.9334,-8.069 -43,-7.5312 -8.0666,0.5378 -13.4479,-1.069 -17.75,-0.5312 -4.3023,0.5377 -10.1963,-5.3802 -17.1875,-7.5313 -2.6217,-0.8066 -5.9276,-1.0005 -9.0312,-0.9375 z m -22.5626,28.3438 c -16.5562,0.9953 -14.9106,17.4393 -3.375,23.6562 3.2267,1.6133 5.4063,3.2551 5.4063,5.4062 0,2.1512 2.6563,5.9063 2.6563,5.9063 0,0 4.3047,3.74859 7.5312,6.4375 3.2267,2.68887 2.6729,2.19784 6.4375,6.5 3.7643,4.3022 5.9375,5.90625 5.9375,5.90625 0,0 -1.6303,-2.14697 -3.7812,-8.0625 -2.1512,-5.91553 -4.293,-11.84234 -5.9063,-14.53125 -1.6134,-2.6889 -1.63,-9.6861 -3.7813,-12.375 -2.1509,-2.6889 -1.625,-4.293 -1.625,-5.9063 0.8699,-9.9979 -2.585,-9.4912 -6.9687,-12.9374 -0.9074,-0.034 -1.7298,-0.023 -2.5313,0 z m -28.4062,4.25 c -3.1672,0.023 -6.293,0.9865 -8.2188,3.875 -4.4018,6.6022 -0.076,15.1462 0.125,26.74995 l 1.625,18.84375 1.375,15.96875 3.0626,19.25 1.6562,20.90625 0.25,0.875 3,-12.40625 0.2812,-13.75 2.625,-16.5 2.0938,-13.21875 c 0.7002,-4.48252 2.6997,-19.96035 3.25,-26.5625 0.5502,-6.6022 2.2699,-19.9745 -1.0312,-21.625 -1.8569,-0.9285 -6.0217,-2.4353 -10.0938,-2.4062 z"
         style="color:#000000;fill:#ffe400;fill-opacity:1;fill-rule:nonzero;stroke:none;stroke-width:10;marker:none;visibility:visible;display:inline;overflow:visible;enable-background:accumulate"
         inkscape:connector-curvature="0" />
      <path
         id="path19531"
         transform="matrix(0.26458334,0,0,0.26458334,-6.3049604e-6,18.562493)"
         d="m 2592.4375,-1132.3438 c -0.7779,-0.5774 -0.732,24.4351 -0.2187,34.1876 0.5866,11.1455 -1.1777,14.6865 -2.9376,22.3124 -1.7599,7.626 -3.5152,9.9491 2.9376,13.4688 0,0 5.8723,2.3492 8.2187,-2.3438 2.3465,-4.6928 -2.9446,-22.266 -3.5313,-28.7187 -0.5866,-6.4527 -2.9205,-26.9964 -4.0937,-36.9687 -0.1467,-1.2466 -0.2639,-1.8551 -0.375,-1.9376 z m 52.5937,42.125 c -1.1732,0.2934 -8.5187,8.209 -12.625,9.9688 -4.1063,1.7598 -7.6173,0.8914 -10.8437,3.5312 -3.2263,2.6398 -3.8147,2.9134 -5.2813,3.5 -1.4666,0.5867 -2.6562,-0.5937 -2.6562,-0.5937 -4.6929,4.6929 -3.5147,10.2736 -0.875,13.5 2.6397,3.2263 11.1536,0.3103 13.5,-1.1563 2.3464,-1.4665 6.154,-7.637 4.6875,-7.3437 -1.4666,0.2933 -1.7429,-1.7714 -1.1563,-3.5313 0.5868,-1.7598 3.7928,-4.3936 7.3126,-8.5 3.5196,-4.1063 9.1107,-9.6683 7.9374,-9.375 z m -18.3124,35.1563 c -2.8632,0.084 -4.875,1.2187 -4.875,1.2187 -7.9193,2.3465 -8.1974,9.3723 -6.4376,11.7188 1.76,2.3464 14.9349,6.1633 17.2813,6.75 2.3464,0.5866 14.0768,-1.4759 15.25,-2.0625 1.1732,-0.5866 4.1295,-0.858 7.0625,-2.0313 2.9331,-1.1732 24.3313,-0.5937 28.4375,-0.5937 4.1063,0 24.9371,-2.3679 28.75,-1.7813 3.813,0.5867 17.0197,1.1733 13.5,0 -3.5196,-1.1733 -26.9969,-3.5 -33.1563,-3.5 -6.1594,0 -33.7423,-4.6874 -36.9687,-4.6874 -3.2263,0 -18.4539,-2.6612 -21.0937,-1.7813 -2.6398,0.8799 -2.9491,-2.9254 -6.4688,-3.2187 -0.44,-0.037 -0.8722,-0.043 -1.2812,-0.031 z m -9.8438,23.5 c -6.1594,3.2264 -5.5915,7.6365 -4.125,11.1563 1.4665,3.5196 8.228,3.2281 10.2812,5.2812 2.0532,2.0532 2.9255,3.5094 3.2188,5.5625 0.2933,2.0532 1.7522,3.7978 3.2188,6.4375 1.4666,2.6398 3.8147,4.69687 5.2812,6.75 1.4665,2.05313 4.6973,5.58929 2.9375,2.65625 -1.7599,-2.93305 -8.2018,-13.20615 -9.375,-17.31245 -1.1732,-4.1064 -2.0625,-9.375 -2.0625,-9.375 0,0 1.4665,-1.4853 0,-4.125 -1.4665,-2.6398 -1.187,-6.4567 -5,-6.75 -3.8129,-0.2934 -4.375,-0.2813 -4.375,-0.2813 z m -20.375,3.1875 c -0.2933,-0.01 -0.4688,0.031 -0.4688,0.031 -10.2657,2.6398 -9.3849,12.925 -7.625,17.0313 1.7599,4.1063 2.3389,9.3812 3.2188,17.59375 0.8799,8.21251 2.0746,8.79239 1.7812,16.125 -0.2933,7.3326 -0.012,10.26383 0.2813,15.25 0.2933,4.98617 0.01,11.43795 0.5937,7.625 0.5867,-3.81296 0.5696,-13.50401 1.1563,-20.25 0.5866,-6.746 3.5362,-16.99463 2.6563,-21.6875 -0.88,-4.69295 0.875,-12.62495 0.875,-12.62495 0,0 -3.5291,-3.2139 -2.0626,-4.0938 1.4666,-0.8799 3.5192,-1.478 3.8126,-3.5312 0.2933,-2.0532 3.8081,-3.8 0.875,-7.9063 -2.1998,-3.0797 -4.2139,-3.535 -5.0938,-3.5625 z"
         style="color:#000000;fill:#ffff00;fill-opacity:1;fill-rule:nonzero;stroke:none;stroke-width:10;marker:none;visibility:visible;display:inline;overflow:visible;filter:url(#filter19617);enable-background:accumulate"
         inkscape:connector-curvature="0" />
    </g>
    <g
       id="g19584"
       transform="matrix(1.1103755,0,0,1.1103755,-668.64798,120.0742)"
       inkscape:export-filename="C:\Users\rober\Desktop\assets\ASSETS_2022\effects\muzzle_effects\pngs\muzzle_flare_09.png"
       inkscape:export-xdpi="90"
       inkscape:export-ydpi="90">
      <path
         style="color:#000000;fill:#ffe400;fill-opacity:1;fill-rule:nonzero;stroke:#ffa303;stroke-width:10;stroke-linejoin:round;stroke-opacity:1;marker:none;visibility:visible;display:inline;overflow:visible;filter:url(#filter19580);enable-background:accumulate"
         d="m 3256.875,-1128.7188 c -2.8295,0.407 6.9586,13.5156 10.1875,20.7813 3.5638,8.0172 0.9052,11.6082 4.4687,17.8437 3.0857,5.4 19.3205,24.1731 35.1876,33.1563 -0.4544,1.8546 -0.3683,3.8404 -0.125,5.3437 -7.4746,2.3758 -9.4931,7.7008 -10,11.3126 -0.6262,0.1012 -1,0.1874 -1,0.1874 -12.4714,3.5633 -27.608,13.2163 -32.0626,25.6876 -4.4536,12.4711 -0.026,16.01437 -1.7812,22.24995 -1.7816,6.23562 -4.453,13.40518 -5.3438,18.75 -0.8907,5.34486 -1.75,11.59375 -1.75,11.59375 0,0 11.5467,-9.82688 14.2188,-16.0625 2.673,-6.23558 9.8805,-11.72659 12.5,-16.03125 3.5631,-5.85524 16.8746,-22.94335 20.4375,-23.90625 3.3532,-6.7052 9.0998,-14.2087 5.3125,-18.7813 1.148,0.833 2.3723,1.969 3.625,3.5 8.0175,9.7988 -2.6724,19.6086 0,24.0626 2.6722,4.454 10.6541,-14.672 25.9732,17.41342 9.094,4.06078 14.8315,9.69905 14.8315,9.69905 0,0 12.6434,3.45767 19.9221,7.66714 0.6417,-5.74522 -5.2583,-15.06917 -11.4743,-22.64403 -6.216,-7.57488 -12.8859,-15.78688 -12.8859,-15.78688 0,0 -6.91,-9.3665 -4.8691,-13.5167 4.9775,-4.148 7.7883,8.5263 26.4541,1.8896 l 19.5172,-7.8779 13.4062,-1.8125 24,-5.2188 c 12.3972,1.1083 59.0074,0.9611 72.0938,0.3553 l 30.1213,-0.8606 c 0,0 25.0313,-2.1476 20.8833,-3.8068 7.4664,-4.1479 -42.4717,-5.9405 -42.4717,-5.9405 -26.4804,-3.8373 -49.4731,0.9147 -72.5474,-1.7641 -8.8651,-1.0293 -15.6036,-4.5526 -22.3579,-3.8894 0,0 -14.5283,-8.5738 -20.7502,-9.8182 0,0 -15.3345,-6.048 -30.6819,-9.3664 l -12.5393,0.6223 c 2.0163,-3.4297 7.2133,-6.5205 6.002,-8.7197 -4.5686,-8.2947 -1.4024,-15.4412 5.4568,-15.1492 3.4738,-4.8622 11.8372,-17.9497 11.6525,-22.4882 -0.02,-0.5668 -0.2931,-0.8952 -0.7585,-1.0057 -3.2443,-0.7716 -15.7337,8.2708 -15.7337,8.2708 -11.1443,7.4141 -11.0769,10.0428 -25.77,18.2618 -7.3663,5.8752 -15.1731,12.6773 -16.3803,16.9865 -3.3572,-5.9719 -6.5909,-11.3037 -7.3126,-13.4688 -1.7815,-5.3448 -2.7164,-9.8104 -13.4062,-20.5 -10.6891,-10.6896 -26.671,-14.2651 -32.9062,-16.9375 -0.585,-0.2502 -1.051,-0.3232 -1.3438,-0.2813 z"
         transform="matrix(0.26458334,0,0,0.26458334,-6.3049604e-6,18.562493)"
         id="path19578"
         inkscape:connector-curvature="0"
         sodipodi:nodetypes="ccccccccccccsccsccccsccccccsccccccccsccccccccccc" />
      <path
         sodipodi:nodetypes="ccccccccccccsccsccccsccccccsccccccccsccccccccccc"
         inkscape:connector-curvature="0"
         id="path19562"
         transform="matrix(0.26458334,0,0,0.26458334,-6.3049604e-6,18.562493)"
         d="m 3256.875,-1128.7188 c -2.8295,0.407 6.9586,13.5156 10.1875,20.7813 3.5638,8.0172 0.9052,11.6082 4.4687,17.8437 3.0857,5.4 19.3205,24.1731 35.1876,33.1563 -0.4544,1.8546 -0.3683,3.8404 -0.125,5.3437 -7.4746,2.3758 -9.4931,7.7008 -10,11.3126 -0.6262,0.1012 -1,0.1874 -1,0.1874 -12.4714,3.5633 -27.608,13.2163 -32.0626,25.6876 -4.4536,12.4711 -0.026,16.01437 -1.7812,22.24995 -1.7816,6.23562 -4.453,13.40518 -5.3438,18.75 -0.8907,5.34486 -1.75,11.59375 -1.75,11.59375 0,0 11.5467,-9.82688 14.2188,-16.0625 2.673,-6.23558 9.8805,-11.72659 12.5,-16.03125 3.5631,-5.85524 16.8746,-22.94335 20.4375,-23.90625 3.3532,-6.7052 9.0998,-14.2087 5.3125,-18.7813 1.148,0.833 2.3723,1.969 3.625,3.5 8.0175,9.7988 -2.6724,19.6086 0,24.0626 2.6722,4.454 10.6541,-14.672 25.9732,17.41342 9.094,4.06078 14.8315,9.69905 14.8315,9.69905 0,0 12.6434,3.45767 19.9221,7.66714 0.6417,-5.74522 -5.2583,-15.06917 -11.4743,-22.64403 -6.216,-7.57488 -12.8859,-15.78688 -12.8859,-15.78688 0,0 -6.91,-9.3665 -4.8691,-13.5167 4.9775,-4.148 7.7883,8.5263 26.4541,1.8896 l 19.5172,-7.8779 13.4062,-1.8125 24,-5.2188 c 12.3972,1.1083 59.0074,0.9611 72.0938,0.3553 l 30.1213,-0.8606 c 0,0 25.0313,-2.1476 20.8833,-3.8068 7.4664,-4.1479 -42.4717,-5.9405 -42.4717,-5.9405 -26.4804,-3.8373 -49.4731,0.9147 -72.5474,-1.7641 -8.8651,-1.0293 -15.6036,-4.5526 -22.3579,-3.8894 0,0 -14.5283,-8.5738 -20.7502,-9.8182 0,0 -15.3345,-6.048 -30.6819,-9.3664 l -12.5393,0.6223 c 2.0163,-3.4297 7.2133,-6.5205 6.002,-8.7197 -4.5686,-8.2947 -1.4024,-15.4412 5.4568,-15.1492 3.4738,-4.8622 11.8372,-17.9497 11.6525,-22.4882 -0.02,-0.5668 -0.2931,-0.8952 -0.7585,-1.0057 -3.2443,-0.7716 -15.7337,8.2708 -15.7337,8.2708 -11.1443,7.4141 -11.0769,10.0428 -25.77,18.2618 -7.3663,5.8752 -15.1731,12.6773 -16.3803,16.9865 -3.3572,-5.9719 -6.5909,-11.3037 -7.3126,-13.4688 -1.7815,-5.3448 -2.7164,-9.8104 -13.4062,-20.5 -10.6891,-10.6896 -26.671,-14.2651 -32.9062,-16.9375 -0.585,-0.2502 -1.051,-0.3232 -1.3438,-0.2813 z"
         style="color:#000000;fill:url(#linearGradient19886);fill-opacity:1;fill-rule:nonzero;stroke:none;stroke-width:10;marker:none;visibility:visible;display:inline;overflow:visible;enable-background:accumulate" />
      <path
         sodipodi:nodetypes="ccscssscssscccsccccccccccccccccssscscscccc"
         transform="matrix(0.26458334,0,0,0.26458334,-6.3049604e-6,18.562493)"
         inkscape:connector-curvature="0"
         id="path19576"
         d="m 3310.4775,-1058.5287 c -4.9776,-6.6367 -4.5628,-7.4663 -9.1255,-11.1994 -4.5627,-3.7332 -8.2959,-4.148 -9.5403,-8.7107 -1.2444,-4.5628 2.074,-3.3184 -0.4148,-8.7107 -2.4887,-5.3923 -2.0739,-6.6367 -6.2219,-12.4439 -4.1479,-5.8071 -8.2959,-14.5178 -5.3923,-10.7846 2.9035,3.7331 5.8071,12.8586 12.4438,17.8362 6.6367,4.9775 7.4663,4.9775 11.1995,11.1994 3.7331,6.2219 6.1604,9.4102 9.5403,11.1995 l 7.0515,3.7331 c 2.6434,1.3995 0.4148,-7.0515 4.1479,-10.7846 3.7332,-3.7332 12.0291,-6.222 13.6882,-10.3699 1.6592,-4.148 9.1255,-10.3699 7.8811,-8.2959 -1.2443,2.074 -3.3183,10.7847 -7.0515,14.9326 -3.7331,4.148 -6.57,6.5607 -7.4663,10.3699 l -1.6592,7.0515 12.4439,6.2219 31.1096,7.0515 21.9841,-1.6591 35.6723,7.4663 -36.5018,2.0739 -16.5919,-3.3183 -28.206,0.8296 -12.8586,1.2443 -5.8072,4.148 1.2444,12.8586 6.2219,16.177 0,7.8811 -13.2734,-15.3474 -6.6367,-10.7846 2.9036,-6.6368 -5.8072,-7.4663 c -2.306,-2.9649 -0.8296,-5.8071 -7.4663,-0.8296 -6.6367,4.9776 -17.8362,21.9842 -21.5693,28.6209 -3.7332,6.6367 -7.4663,11.6142 -10.3699,13.6882 -2.9035,2.07399 -7.4663,11.61427 -8.2959,12.85865 -0.8296,1.24439 2.4888,-10.78466 4.5628,-16.17695 2.0739,-5.3924 4.5627,-12.0291 7.0515,-14.9327 2.4887,-2.9035 12.4438,-14.9326 14.5178,-16.177 2.074,-1.2443 3.3184,-3.3183 6.6367,-4.9775 3.3184,-1.6592 5.8071,-7.0515 7.4663,-10.3699 1.6592,-3.3183 2.4888,-7.4663 2.4888,-7.4663 z"
         style="opacity:0.98999999;color:#000000;fill:url(#linearGradient19918);fill-opacity:1;fill-rule:nonzero;stroke:none;stroke-width:10;marker:none;visibility:visible;display:inline;overflow:visible;enable-background:accumulate" />
    </g>
    <g
       id="g19603"
       transform="matrix(1.1103755,0,0,1.1103755,-386.23854,-26.068301)"
       inkscape:export-filename="C:\Users\rober\Desktop\assets\ASSETS_2022\effects\muzzle_effects\pngs\muzzle_flare_01.png"
       inkscape:export-xdpi="90"
       inkscape:export-ydpi="90">
      <path
         style="opacity:0.98999999;color:#000000;fill:#ffe400;fill-opacity:1;fill-rule:nonzero;stroke:#ffa800;stroke-width:2.64583349;stroke-linejoin:round;stroke-miterlimit:4;stroke-opacity:1;stroke-dasharray:none;marker:none;visibility:visible;display:inline;overflow:visible;filter:url(#filter19599);enable-background:accumulate"
         d="m 611.04926,-262.055 c -5.74265,2.1729 -3.88017,6.36349 0.31042,7.44993 1.67974,0.43549 31.19659,8.84679 31.81741,7.37233 0.62081,-1.47447 -14.27905,-7.99316 -13.19259,-9.0796 1.08646,-1.08645 28.13082,-1.6318 29.02367,-3.56976 -0.23279,-1.31925 -30.73093,-2.3281 -30.11011,-3.41455 0.62082,-1.08645 9.62282,-8.69158 10.55405,-10.24365 0.93125,-1.55207 -3.45512,0.70579 -11.48529,4.19058 -8.22596,3.56976 -16.91756,7.29472 -16.91756,7.29472 z"
         id="path19593"
         inkscape:connector-curvature="0"
         sodipodi:nodetypes="cssscsssc" />
      <path
         sodipodi:nodetypes="cssscsssc"
         inkscape:connector-curvature="0"
         id="path19589"
         d="m 611.04926,-262.055 c -5.74265,2.1729 -3.88017,6.36349 0.31042,7.44993 1.67974,0.43549 31.19659,8.84679 31.81741,7.37233 0.62081,-1.47447 -14.27905,-7.99316 -13.19259,-9.0796 1.08646,-1.08645 28.13082,-1.6318 29.02367,-3.56976 -0.23279,-1.31925 -30.73093,-2.3281 -30.11011,-3.41455 0.62082,-1.08645 9.62282,-8.69158 10.55405,-10.24365 0.93125,-1.55207 -3.45512,0.70579 -11.48529,4.19058 -8.22596,3.56976 -16.91756,7.29472 -16.91756,7.29472 z"
         style="opacity:0.98999999;color:#000000;fill:#ffe400;fill-opacity:1;fill-rule:nonzero;stroke:none;stroke-width:10;marker:none;visibility:visible;display:inline;overflow:visible;enable-background:accumulate" />
      <path
         sodipodi:nodetypes="ccccscscc"
         transform="matrix(0.26458334,0,0,0.26458334,-6.3049604e-6,18.562493)"
         inkscape:connector-curvature="0"
         id="path19591"
         d="m 2297.2344,-1048.0667 c 3.3183,-12.0291 97.2008,-41.844 93.4676,-38.1109 -3.7331,3.7332 -31.0054,22.4996 -30.1255,24.5527 1.4666,2.3465 6.7668,3.419 11.7444,4.4915 8.2038,1.6592 86.1181,2.6547 81.8152,5.1911 -4.6843,2.7612 -88.5821,4.9776 -91.0206,9.9134 -3.6116,7.5755 47.6264,26.4149 43.1387,28.5202 -4.9879,2.34 -102.6052,-24.0876 -105.9236,-27.4059 -4.7849,-4.4916 -3.0962,-7.1521 -3.0962,-7.1521 z"
         style="opacity:0.98999999;color:#000000;fill:url(#linearGradient19926);fill-opacity:1;fill-rule:nonzero;stroke:none;stroke-width:10;marker:none;visibility:visible;display:inline;overflow:visible;filter:url(#filter19612);enable-background:accumulate" />
    </g>
    <g
       id="g19664"
       transform="matrix(1.393929,0.03679925,0,1.393929,-444.66696,-12.66723)"
       inkscape:export-filename="C:\Users\rober\Desktop\assets\ASSETS_2022\effects\muzzle_effects\pngs\muzzle_flare_05.png"
       inkscape:export-xdpi="90"
       inkscape:export-ydpi="90">
      <path
         style="opacity:0.68584074;color:#000000;fill:#ffe300;fill-opacity:1;fill-rule:nonzero;stroke:#ffae00;stroke-width:5;stroke-linejoin:round;stroke-miterlimit:4;stroke-opacity:1;stroke-dasharray:none;marker:none;visibility:visible;display:inline;overflow:visible;filter:url(#filter19660);enable-background:accumulate"
         d="m 2034.3125,-813.1875 c -3.222,0.21454 -6.4402,1.60312 -8.75,3.65625 -2.1448,1.90647 -3.7126,4.38377 -4.6563,6.46875 -0.039,-0.19444 -2.6362,2.94559 -2.75,2.96875 -1.0746,0.21912 -5.2309,9.39975 -7.875,14.375 -0.1334,-0.70915 -0.2972,-1.43546 -0.5624,-2.125 -2.9331,-7.62591 -9.375,-5.25 -9.375,-5.25 0,0 0.5767,2.9107 1.75,5.84375 1.1732,2.93304 -5.267,11.15357 -4.0938,13.5 0.8089,1.61781 0.5305,4.15182 1.0312,9.75 -2.6696,1.24002 -5.4932,2.58319 -7.1874,5.21875 -8.9016,14.12421 -10.0758,21.93379 0,37.46875 3.7331,5.80712 8.2868,5.41162 9.5312,11.21875 0.1861,0.86841 0.4631,1.69622 0.7812,2.5 0.8066,5.08538 0.3876,8.00606 -0.6562,10.09375 -1.7598,3.51965 7.0482,12.32501 5.875,8.21875 -0.684,-2.39374 0.6188,-4.20275 2.0625,-6.5625 0.2173,0.36536 0.4535,0.71721 0.6563,1.09375 2.9036,5.39233 7.8976,16.57398 8.3124,14.5 0.2368,-1.1833 3.3051,-0.94206 6.2813,-1.59375 1.162,1.84363 2.0313,3.125 2.0313,3.125 12.9054,5.86609 14.6874,-7.625 14.6874,-7.625 l -2.3437,-5.28125 c 0,0 1.7536,8.80804 -8.2187,5.875 -0.5164,-0.15186 -1.018,-0.35229 -1.5,-0.5625 -9.1409,-6.90725 -10.3956,-26.39516 3.375,-22.75 0.4149,-1.65918 14.2812,3.9375 14.2812,3.9375 0,0 3.3345,-12.00317 17.4375,-5.78125 3.7332,-5.39233 14.9089,-8.75 17.8125,-8.75 2.9036,0 8.3237,-1.23022 10.8125,0.84375 2.4887,2.07398 9.957,-6.22754 16.5937,-1.25 0,0 7.0426,0.83813 9.5313,-0.40625 2.4888,-1.24439 9.5424,-9.15063 12.0313,-7.90625 2.4888,1.24439 9.125,4.15625 9.125,4.15625 0,0 11.6361,-4.55395 14.125,-4.96875 2.4889,-0.41479 11.1845,0.42041 12.8437,1.25 1.6592,0.82959 9.5283,2.07104 11.1875,1.65625 1.6592,-0.4148 15.7812,-7.625 15.7812,-7.625 0,0 7.4346,-0.80395 9.0938,-1.21875 1.6592,-0.41479 14.5938,-1.0625 14.5938,-1.0625 L 2252.0312,-739 c 1.5256,0.005 1.6355,-0.65625 0,-0.65625 L 2215,-743.875 c 0,0 -3.7554,-2.07666 -9.5625,-2.90625 -1.6592,-0.41477 -9.0937,-4.96875 -9.0937,-4.96875 0,0 -14.1221,-4.5852 -15.7813,-5 -1.6592,-0.4148 -9.5283,0.82664 -11.1875,1.65625 -1.6592,0.82957 -10.3549,1.6648 -12.8438,1.25 -2.4888,-0.4148 -14.125,-7.03125 -14.125,-7.03125 0,0 -6.6361,2.91184 -9.125,4.15625 -2.4887,1.24437 -9.5424,-0.84938 -12.0312,-2.09375 -2.4887,-1.24441 -9.5312,-5.375 -9.5312,-5.375 0,0 -14.1051,-3.32398 -16.5938,-1.25 -2.4888,2.07398 -8.7214,4.15625 -11.625,4.15625 -2.9036,0 -21.7498,2.89013 -24.0312,-14.53125 L 2047,-774.96875 c 0,0 -10.3124,1.78463 -10.75,-7.03125 -4.2214,0.77703 -13.3631,-2.49564 -9.5625,-12.0625 1.5947,-4.01414 -1.6582,-5.79223 -3.9063,-7.21875 3.7095,-2.75162 10.4063,-5.90625 10.4063,-5.90625 10.559,3.51965 4.0982,12.30536 7.0313,11.71875 2.9331,-0.58661 8.7938,-3.50623 4.6874,-11.71875 -2.3097,-4.61954 -6.4511,-6.27583 -10.5937,-6 z"
         transform="matrix(0.26458334,0,0,0.26458334,-6.3049604e-6,18.562493)"
         id="path19654"
         inkscape:connector-curvature="0" />
      <path
         id="path19625"
         transform="matrix(0.26458334,0,0,0.26458334,-6.3049604e-6,18.562493)"
         d="m 2034.3125,-813.1875 c -3.222,0.21454 -6.4402,1.60312 -8.75,3.65625 -2.1448,1.90647 -3.7126,4.38377 -4.6563,6.46875 -0.039,-0.19444 -2.6362,2.94559 -2.75,2.96875 -1.0746,0.21912 -5.2309,9.39975 -7.875,14.375 -0.1334,-0.70915 -0.2972,-1.43546 -0.5624,-2.125 -2.9331,-7.62591 -9.375,-5.25 -9.375,-5.25 0,0 0.5767,2.9107 1.75,5.84375 1.1732,2.93304 -5.267,11.15357 -4.0938,13.5 0.8089,1.61781 0.5305,4.15182 1.0312,9.75 -2.6696,1.24002 -5.4932,2.58319 -7.1874,5.21875 -8.9016,14.12421 -10.0758,21.93379 0,37.46875 3.7331,5.80712 8.2868,5.41162 9.5312,11.21875 0.1861,0.86841 0.4631,1.69622 0.7812,2.5 0.8066,5.08538 0.3876,8.00606 -0.6562,10.09375 -1.7598,3.51965 7.0482,12.32501 5.875,8.21875 -0.684,-2.39374 0.6188,-4.20275 2.0625,-6.5625 0.2173,0.36536 0.4535,0.71721 0.6563,1.09375 2.9036,5.39233 7.8976,16.57398 8.3124,14.5 0.2368,-1.1833 3.3051,-0.94206 6.2813,-1.59375 1.162,1.84363 2.0313,3.125 2.0313,3.125 12.9054,5.86609 14.6874,-7.625 14.6874,-7.625 l -2.3437,-5.28125 c 0,0 1.7536,8.80804 -8.2187,5.875 -0.5164,-0.15186 -1.018,-0.35229 -1.5,-0.5625 -9.1409,-6.90725 -10.3956,-26.39516 3.375,-22.75 0.4149,-1.65918 14.2812,3.9375 14.2812,3.9375 0,0 3.3345,-12.00317 17.4375,-5.78125 3.7332,-5.39233 14.9089,-8.75 17.8125,-8.75 2.9036,0 8.3237,-1.23022 10.8125,0.84375 2.4887,2.07398 9.957,-6.22754 16.5937,-1.25 0,0 7.0426,0.83813 9.5313,-0.40625 2.4888,-1.24439 9.5424,-9.15063 12.0313,-7.90625 2.4888,1.24439 9.125,4.15625 9.125,4.15625 0,0 11.6361,-4.55395 14.125,-4.96875 2.4889,-0.41479 11.1845,0.42041 12.8437,1.25 1.6592,0.82959 9.5283,2.07104 11.1875,1.65625 1.6592,-0.4148 15.7812,-7.625 15.7812,-7.625 0,0 7.4346,-0.80395 9.0938,-1.21875 1.6592,-0.41479 14.5938,-1.0625 14.5938,-1.0625 L 2252.0312,-739 c 1.5256,0.005 1.6355,-0.65625 0,-0.65625 L 2215,-743.875 c 0,0 -3.7554,-2.07666 -9.5625,-2.90625 -1.6592,-0.41477 -9.0937,-4.96875 -9.0937,-4.96875 0,0 -14.1221,-4.5852 -15.7813,-5 -1.6592,-0.4148 -9.5283,0.82664 -11.1875,1.65625 -1.6592,0.82957 -10.3549,1.6648 -12.8438,1.25 -2.4888,-0.4148 -14.125,-7.03125 -14.125,-7.03125 0,0 -6.6361,2.91184 -9.125,4.15625 -2.4887,1.24437 -9.5424,-0.84938 -12.0312,-2.09375 -2.4887,-1.24441 -9.5312,-5.375 -9.5312,-5.375 0,0 -14.1051,-3.32398 -16.5938,-1.25 -2.4888,2.07398 -8.7214,4.15625 -11.625,4.15625 -2.9036,0 -21.7498,2.89013 -24.0312,-14.53125 L 2047,-774.96875 c 0,0 -10.3124,1.78463 -10.75,-7.03125 -4.2214,0.77703 -13.3631,-2.49564 -9.5625,-12.0625 1.5947,-4.01414 -1.6582,-5.79223 -3.9063,-7.21875 3.7095,-2.75162 10.4063,-5.90625 10.4063,-5.90625 10.559,3.51965 4.0982,12.30536 7.0313,11.71875 2.9331,-0.58661 8.7938,-3.50623 4.6874,-11.71875 -2.3097,-4.61954 -6.4511,-6.27583 -10.5937,-6 z"
         style="opacity:0.98999999;color:#000000;fill:url(#linearGradient19894);fill-opacity:1;fill-rule:nonzero;stroke:none;stroke-width:10;marker:none;visibility:visible;display:inline;overflow:visible;enable-background:accumulate"
         inkscape:connector-curvature="0" />
      <path
         sodipodi:nodetypes="ccscccccccssccsscssssssssssscccsccccscssc"
         inkscape:connector-curvature="0"
         id="path19641"
         transform="matrix(0.26458334,0,0,0.26458334,-6.3049604e-6,18.562493)"
         d="m 2033.2018,-766.84375 c -1.2699,0.1036 -9.7921,4.10432 -11.5031,5.10242 -2.4889,1.45179 -7.3181,-10.70434 -12.4315,-9.12293 -7.9006,2.4434 -17.4839,9.73076 -21.1592,21.70801 -2.1406,5.2629 -2.5673,9.98787 -1,15.375 0.7675,1.4542 1.6142,3.22564 2.4688,5.4375 0.3603,0.93256 0.6807,1.77637 1.0312,2.5625 0.7926,1.42777 1.6684,2.89744 2.6876,4.46875 0.3298,0.51304 0.6602,0.98148 1,1.40625 0.036,0.0378 0.088,0.0565 0.125,0.0937 2.3199,2.34636 5.3431,3.62117 10.2812,5.34375 8.9181,3.11096 14.926,3.96594 17,3.34375 2.074,-0.62219 2.0683,-2.07946 1.0312,-3.53125 -1.037,-1.45178 -0.395,-10.57373 2.0938,-13.0625 2.4887,-2.48877 6.4261,-0.2301 8.5,-0.4375 2.074,-0.2074 8.9202,1.24427 12.0312,2.28125 3.1111,1.03699 4.5454,3.9403 5.375,4.5625 0.8297,0.62219 9.7642,-1.21875 10.5938,-1.21875 0.8296,0 5.5822,-5.83521 7.6562,-6.25 2.0741,-0.4148 10.7924,-2.07104 15.5626,-1.65625 4.7701,0.41479 27.8066,-4.97156 31.125,-5.59375 3.3184,-0.62219 10.1588,1.03699 15.3437,0 5.185,-1.03699 19.082,0.41479 25.7187,0 6.6368,-0.41479 13.2611,-2.05957 18.0313,-3.71875 4.7701,-1.65918 39.1901,0.81824 42.0937,-0.21875 2.9036,-1.03699 -18.6674,-1.66479 -21.1562,-1.25 -2.4888,0.4148 -20.9457,-3.92615 -27.375,-3.71875 -6.4294,0.2074 -12.443,-0.20179 -15.9688,1.25 -3.5258,1.45178 -22.3948,-1.45179 -24.4687,0 -2.074,1.45178 -9.9316,0.59668 -13.25,-1.0625 -3.3183,-1.65918 -14.5339,-2.67908 -17.4375,-0.8125 -2.9035,1.86658 -5.1986,0.19605 -9.9688,-0.21875 -4.7702,-0.41479 -6.1931,-2.49146 -7.4374,-2.90625 -1.2445,-0.4148 -7.8834,-2.46582 -9.75,-4.125 -1.8667,-1.65918 -3.125,0.20447 -5.4063,1.65625 -2.2814,1.45178 -13.0567,0.40905 -14.0937,1.03125 -1.0371,0.62219 -6.0114,-0.83801 -6.2188,-1.875 -0.2074,-1.03699 -7.6875,-8.5 -7.6875,-8.5 0,0 -2.5,-3.72718 -2.5,-5.59375 0,-0.58331 -0.9375,-1.32912 -0.9375,-0.75 z"
         style="opacity:0.98999999;color:#000000;fill:url(#linearGradient19910);fill-opacity:1;fill-rule:nonzero;stroke:none;stroke-width:10;marker:none;visibility:visible;display:inline;overflow:visible;filter:url(#filter19650);enable-background:accumulate" />
    </g>
    <g
       id="g19724"
       transform="matrix(1.1103755,0,0,1.1103755,-155.18959,28.525549)"
       inkscape:export-filename="C:\Users\rober\Desktop\assets\ASSETS_2022\effects\muzzle_effects\pngs\muzzle_flare_10.png"
       inkscape:export-xdpi="90"
       inkscape:export-ydpi="90">
      <path
         style="color:#000000;fill:#fee301;fill-opacity:1;fill-rule:nonzero;stroke:#ff8a00;stroke-width:2.64583349;stroke-linejoin:round;stroke-miterlimit:4;stroke-opacity:1;stroke-dasharray:none;marker:none;visibility:visible;display:inline;overflow:visible;filter:url(#filter19720);enable-background:accumulate"
         d="m 520.88686,-184.57993 c 3.96891,-0.27807 12.02711,0.58846 15.0423,1.05959 9.93325,1.55208 31.54234,5.51143 36.008,6.20827 9.68446,1.5112 9.99189,1.63844 -3e-5,2.94892 -2.48135,0.32544 -26.38512,5.27704 -36.00794,6.5187 -4.46686,0.57636 -9.8701,1.82585 -14.90573,1.48249 -17.0624,-2.29426 -16.30344,-16.04735 -0.1366,-18.21797 z"
         id="path19694"
         inkscape:connector-curvature="0"
         sodipodi:nodetypes="csssscc" />
      <path
         sodipodi:nodetypes="csssscc"
         inkscape:connector-curvature="0"
         id="path19669"
         d="m 520.88686,-184.57993 c 3.96891,-0.27807 12.02711,0.58846 15.0423,1.05959 9.93325,1.55208 31.54234,5.51143 36.008,6.20827 9.68446,1.5112 9.99189,1.63844 -3e-5,2.94892 -2.48135,0.32544 -26.38512,5.27704 -36.00794,6.5187 -4.46686,0.57636 -9.8701,1.82585 -14.90573,1.48249 -17.0624,-2.29426 -16.30344,-16.04735 -0.1366,-18.21797 z"
         style="color:#000000;fill:url(#linearGradient19902);fill-opacity:1;fill-rule:nonzero;stroke:none;stroke-width:5;marker:none;visibility:visible;display:inline;overflow:visible;enable-background:accumulate" />
      <path
         sodipodi:nodetypes="sccsssss"
         inkscape:connector-curvature="0"
         id="path19671"
         transform="matrix(0.26458334,0,0,0.26458334,-6.3049604e-6,18.562493)"
         d="m 1953.9785,-755.5625 c -1.4689,0.005 -2.8289,0.0408 -4.0312,0.125 -35.9196,7.43577 -37.6664,40.84502 0.3124,44.15625 12.2045,0.83218 25.2991,-2.19687 36.125,-3.59375 23.322,-3.0093 100.0506,-13.40841 106.0528,-14.28125 25.7212,-3.74033 30.1483,-6.02117 0,-10.90625 -10.813,-1.75204 -81.9784,-9.05085 -106.0528,-12.8125 -6.3941,-0.9991 -22.1241,-2.72139 -32.4062,-2.6875 z"
         style="color:#000000;fill:url(#linearGradient19966);fill-opacity:1;fill-rule:nonzero;stroke:none;stroke-width:5;marker:none;visibility:visible;display:inline;overflow:visible;filter:url(#filter19690);enable-background:accumulate" />
    </g>
    <g
       id="g19751"
       transform="matrix(1.1103755,0,0,1.1103755,84.449913,-35.148143)"
       inkscape:export-filename="C:\Users\rober\Desktop\assets\ASSETS_2022\effects\muzzle_effects\pngs\muzzle_flare_11.png"
       inkscape:export-xdpi="90"
       inkscape:export-ydpi="90">
      <path
         style="color:#000000;fill:#ffcc00;fill-opacity:1;fill-rule:nonzero;stroke:#ff6600;stroke-width:10;stroke-linejoin:round;marker:none;visibility:visible;display:inline;overflow:visible;filter:url(#filter19747);enable-background:accumulate"
         d="m 1462.6562,-616.625 c -1.276,0.15467 4.0754,9.33816 7.375,15.9375 3.5198,7.0393 1.1919,8.19642 4.125,14.0625 2.9331,5.86609 5.283,5.88124 10.5626,14.09375 5.2795,8.21252 -3.5242,8.78302 -2.9376,14.0625 0.5867,5.27947 -1.7821,13.50623 5.8438,21.71875 7.597,8.18139 7.6644,9.33849 19.8438,8.1875 0.036,5.02483 1.3152,11.23807 3.375,17.40625 -2.3572,-2.71188 -4.9504,-3.68213 -9.125,-2.71875 -0.045,0.0104 -0.082,0.0202 -0.125,0.0312 -1.6471,-1.48415 -3.2183,-2.21916 -4.7188,-2.3125 -4.9521,-0.30806 -9.1204,5.98062 -12.75,12.25 -6.4527,11.14556 -5.8697,19.36872 -10.5625,31.6875 -4.6929,12.31878 -4.1026,15.22498 -9.9687,23.4375 -5.8663,8.21252 -13.5126,23.47858 -9.4063,21.71875 4.1062,-1.75982 12.3428,-14.09552 19.9687,-19.375 7.6261,-5.27947 16.4063,-15.8125 16.4063,-15.8125 0,0 0.5812,-4.11695 4.6875,-11.15625 4.1062,-7.03931 8.2188,-1.75 8.2188,-1.75 0,0 4.6918,-0.0214 7.625,-1.78125 2.933,-1.75982 1.7642,-8.77856 2.9374,-11.125 0.8223,-1.64425 4.5167,-2.43614 4.8438,-6.1875 0.3397,0.50425 0.6847,1.02964 1.0312,1.5 8.2127,11.14556 22.875,14.65625 22.875,14.65625 l -11.1375,-17.60803 c 0,0 1.7598,-9.97412 4.1063,-6.45447 2.3464,3.51965 12.2982,8.80804 11.125,5.875 -1.1732,-2.93305 7.0428,-19.34911 10.5625,-14.65625 3.5196,4.69287 12.3125,7.03125 12.3125,7.03125 l 14.0938,-9.96875 c 0,0 6.4418,0.56696 9.375,3.5 2.933,2.93304 11.7401,2.93304 13.5,0 1.7598,-2.93304 15.2517,-9.375 20.5312,-9.375 5.2795,0 14.6607,2.93036 17.5938,2.34375 2.8829,-0.57658 33.5578,-8.92776 34.625,-9.21875 -8.9488,0.2918 -35.5977,-4.2322 -40.5,-3.6875 -5.2796,0.58661 -10.5545,4.09643 -17.5938,1.75 -7.0393,-2.34643 -9.9607,-8.79822 -17,-7.625 -7.0394,1.17322 -15.8411,-5.25715 -18.1875,-5.84375 -2.3464,-0.58661 -4.0982,-4.11608 -7.0313,1.75 -2.9331,5.86609 -6.4508,8.81519 -15.25,6.46875 -8.7992,-2.34643 -8.8124,-14.6875 -8.8124,-14.6875 0,0 1.7697,-11.13483 -1.75,-9.375 -2.4315,1.21575 -5.6801,3.79371 -8.4376,5.875 -0.5527,0.13181 -1.4488,1.18555 -3.3124,1.15625 -16.4148,-0.25811 -7.8818,-18.019 -7.0313,-17.59375 -5.4696,4.10221 -9.71,7.90614 -13.0937,11.46875 -3.4252,-4.01006 -9.5284,-4.79274 -8.5938,-8.53125 1.1732,-4.69287 -5.2758,-6.4491 -9.9688,-9.96875 -4.6929,-3.51965 -8.2302,-8.21607 -11.75,-10.5625 -3.5196,-2.34643 -6.4634,-9.37678 -11.1562,-14.65625 -4.6929,-5.27948 -14.6536,-14.67053 -17,-15.84375 -0.1467,-0.0733 -0.2587,-0.10406 -0.3438,-0.0937 z m 216.8126,90 c 0.6883,-0.0225 1.289,-0.0725 1.75,-0.15625 6.4527,-1.17322 -1.1876,0 -1.1876,0 0,0 -0.5439,0.15119 -0.5624,0.15625 z"
         transform="matrix(0.26458334,0,0,0.26458334,-6.3049604e-6,18.562493)"
         id="path19745"
         inkscape:connector-curvature="0"
         sodipodi:nodetypes="ccsscsccccssscsccsccccccccscccccsscsssssscscsccsscscccccc" />
      <path
         sodipodi:nodetypes="ccsscsccccssscsccsccccccccscccccsscsssssscscsccsscscccccc"
         inkscape:connector-curvature="0"
         id="path19729"
         transform="matrix(0.26458334,0,0,0.26458334,-6.3049604e-6,18.562493)"
         d="m 1462.6562,-616.625 c -1.276,0.15467 4.0754,9.33816 7.375,15.9375 3.5198,7.0393 1.1919,8.19642 4.125,14.0625 2.9331,5.86609 5.283,5.88124 10.5626,14.09375 5.2795,8.21252 -3.5242,8.78302 -2.9376,14.0625 0.5867,5.27947 -1.7821,13.50623 5.8438,21.71875 7.597,8.18139 7.6644,9.33849 19.8438,8.1875 0.036,5.02483 1.3152,11.23807 3.375,17.40625 -2.3572,-2.71188 -4.9504,-3.68213 -9.125,-2.71875 -0.045,0.0104 -0.082,0.0202 -0.125,0.0312 -1.6471,-1.48415 -3.2183,-2.21916 -4.7188,-2.3125 -4.9521,-0.30806 -9.1204,5.98062 -12.75,12.25 -6.4527,11.14556 -5.8697,19.36872 -10.5625,31.6875 -4.6929,12.31878 -4.1026,15.22498 -9.9687,23.4375 -5.8663,8.21252 -13.5126,23.47858 -9.4063,21.71875 4.1062,-1.75982 12.3428,-14.09552 19.9687,-19.375 7.6261,-5.27947 16.4063,-15.8125 16.4063,-15.8125 0,0 0.5812,-4.11695 4.6875,-11.15625 4.1062,-7.03931 8.2188,-1.75 8.2188,-1.75 0,0 4.6918,-0.0214 7.625,-1.78125 2.933,-1.75982 1.7642,-8.77856 2.9374,-11.125 0.8223,-1.64425 4.5167,-2.43614 4.8438,-6.1875 0.3397,0.50425 0.6847,1.02964 1.0312,1.5 8.2127,11.14556 22.875,14.65625 22.875,14.65625 l -11.1375,-17.60803 c 0,0 1.7598,-9.97412 4.1063,-6.45447 2.3464,3.51965 12.2982,8.80804 11.125,5.875 -1.1732,-2.93305 7.0428,-19.34911 10.5625,-14.65625 3.5196,4.69287 12.3125,7.03125 12.3125,7.03125 l 14.0938,-9.96875 c 0,0 6.4418,0.56696 9.375,3.5 2.933,2.93304 11.7401,2.93304 13.5,0 1.7598,-2.93304 15.2517,-9.375 20.5312,-9.375 5.2795,0 14.6607,2.93036 17.5938,2.34375 2.8829,-0.57658 33.5578,-8.92776 34.625,-9.21875 -8.9488,0.2918 -35.5977,-4.2322 -40.5,-3.6875 -5.2796,0.58661 -10.5545,4.09643 -17.5938,1.75 -7.0393,-2.34643 -9.9607,-8.79822 -17,-7.625 -7.0394,1.17322 -15.8411,-5.25715 -18.1875,-5.84375 -2.3464,-0.58661 -4.0982,-4.11608 -7.0313,1.75 -2.9331,5.86609 -6.4508,8.81519 -15.25,6.46875 -8.7992,-2.34643 -8.8124,-14.6875 -8.8124,-14.6875 0,0 1.7697,-11.13483 -1.75,-9.375 -2.4315,1.21575 -5.6801,3.79371 -8.4376,5.875 -0.5527,0.13181 -1.4488,1.18555 -3.3124,1.15625 -16.4148,-0.25811 -7.8818,-18.019 -7.0313,-17.59375 -5.4696,4.10221 -9.71,7.90614 -13.0937,11.46875 -3.4252,-4.01006 -9.5284,-4.79274 -8.5938,-8.53125 1.1732,-4.69287 -5.2758,-6.4491 -9.9688,-9.96875 -4.6929,-3.51965 -8.2302,-8.21607 -11.75,-10.5625 -3.5196,-2.34643 -6.4634,-9.37678 -11.1562,-14.65625 -4.6929,-5.27948 -14.6536,-14.67053 -17,-15.84375 -0.1467,-0.0733 -0.2587,-0.10406 -0.3438,-0.0937 z m 216.8126,90 c 0.6883,-0.0225 1.289,-0.0725 1.75,-0.15625 6.4527,-1.17322 -1.1876,0 -1.1876,0 0,0 -0.5439,0.15119 -0.5624,0.15625 z"
         style="color:#000000;fill:#ffe400;fill-opacity:1;fill-rule:nonzero;stroke:none;stroke-width:10;marker:none;visibility:visible;display:inline;overflow:visible;enable-background:accumulate" />
      <path
         id="path19737"
         transform="matrix(0.26458334,0,0,0.26458334,-6.3049604e-6,18.562493)"
         d="m 1478,-593.15625 c -0.1662,0.2175 6.4567,12.87214 11.4062,21.78125 5.8662,10.55895 4.0885,2.95355 8.7813,9.40625 4.6929,6.45269 0,5.25891 0,11.125 0,5.83791 0.03,7.05047 11.5937,12.84375 -2.2863,3.94963 -1.3728,7.5447 -1.0312,14.71875 0.2151,4.51688 1.7718,8.79633 3.6562,12.40625 -0.2874,-0.031 -0.7187,-0.0625 -0.7187,-0.0625 -17.5982,-1.17321 -18.7742,6.43214 -18.1875,11.125 0.5866,4.69287 2.9429,15.25714 -1.75,15.84375 -4.6928,0.58661 -9.382,0.006 -9.9688,8.21875 -0.5866,8.21252 -3.5142,13.50446 -4.6874,16.4375 -0.5675,1.41845 -3.7401,5.8307 -6.4688,9.4375 5.1485,-5.16334 13.0441,-11.52719 13.5,-14.71875 0.5866,-4.10626 -0.01,-10.56696 4.6875,-13.5 4.6929,-2.93304 11.7231,-7.62231 14.6563,-9.96875 2.933,-2.34643 10.5624,-10.5625 10.5624,-10.5625 0,0 -7.0268,-2.34821 -4.0937,-5.28125 2.933,-2.93305 7.0313,4.6875 7.0313,4.6875 0,0 0.9855,-0.90097 2.0312,-2.15625 0.5165,0.57552 0.9062,1 0.9062,1 0,0 2.3438,-0.0259 2.3438,-4.71875 0,-4.69287 2.3411,-14.64465 4.6875,-11.125 2.3465,3.51965 8.2259,2.34643 8.8125,0 0.5866,-2.34644 7.6124,-9.39911 11.7188,-8.8125 4.1063,0.58661 10.5741,4.11786 14.0937,3.53125 3.5197,-0.58661 12.9008,4.10357 17.5937,2.34375 4.6931,-1.75983 10.5669,-1.16785 13.5,-4.6875 2.9332,-3.51965 19.9376,1.15625 19.9376,1.15625 0,0 -2.9394,-1.76428 -8.2188,-2.9375 -5.2795,-1.17321 -14.0715,-0.57947 -19.9375,0.59375 -5.8661,1.17322 -12.3284,0.003 -18.7813,-2.34375 -6.4527,-2.34644 -11.7446,-8.21875 -16.4374,-8.21875 -4.6931,0 -11.1224,4.10804 -13.4688,5.28125 -2.3465,1.17322 -2.3402,-1.76428 -12.3125,-2.9375 -9.9724,-1.17321 -7.0653,-10.55267 -4.7187,-12.3125 2.3464,-1.75982 2.3437,-2.9375 2.3437,-2.9375 -1.3423,0.9809 -2.511,1.86972 -3.5937,2.71875 0.052,-0.30615 0.094,-0.61808 0.094,-0.9375 0,-5.27948 -3.5313,-4.125 -3.5313,-4.125 0,0 -6.4347,4.12323 -8.7812,-1.15625 -2.3464,-5.27948 1.1634,-5.87945 1.75,-8.8125 0.5867,-2.93304 -6.4705,-6.44196 -11.75,-9.375 -5.2795,-2.93304 -12.8865,-15.85267 -16.4062,-21.71875 -0.55,-0.91658 -0.813,-1.29028 -0.8438,-1.25 z m -7.375,143.28125 c -1.4756,1.4798 -2.7472,2.85521 -3.5312,4.03125 -1.8177,2.72627 0.6175,-0.17999 3.5312,-4.03125 z"
         style="color:#000000;fill:url(#linearGradient19958);fill-opacity:1;fill-rule:nonzero;stroke:none;stroke-width:10;marker:none;visibility:visible;display:inline;overflow:visible;enable-background:accumulate"
         inkscape:connector-curvature="0" />
    </g>
    <g
       id="g19800"
       transform="matrix(0.97334462,0,0,0.97334462,-253.70292,-52.259994)"
       inkscape:export-filename="C:\Users\rober\Desktop\assets\ASSETS_2022\effects\muzzle_effects\pngs\muzzle_flare_07.png"
       inkscape:export-xdpi="90"
       inkscape:export-ydpi="90">
      <path
         style="color:#000000;fill:#ffcc00;fill-opacity:1;fill-rule:nonzero;stroke:#ff6600;stroke-width:2.64583349;stroke-linejoin:round;stroke-miterlimit:4;stroke-dasharray:none;marker:none;visibility:visible;display:inline;overflow:visible;filter:url(#filter19792);enable-background:accumulate"
         d="m 798.74542,-195.17945 c 1.53031,-10.71202 9.18175,-13.39003 9.18175,-13.39003 l 3.82573,2.67801 c 0,0 7.72011,0.11144 5.73856,1.91286 -1.05209,0.95643 -2.86928,4.01701 1.62595,7.07759 0,0 4.11266,-4.01701 5.26039,-2.10415 -1.53031,2.58236 2.96493,3.73008 3.06057,1.91286 0,0 6.50372,-0.38257 6.50372,1.14771 0,1.53029 -3.34751,0.47822 -1.53031,3.5388 l 4.68588,1.15062 c 1.94401,0.37997 6.98424,2.41301 0.76418,4.00656 l -4.49362,1.15526 c -1.91284,3.44315 -6.79065,2.19979 -4.01701,7.36452 -3.06057,0.38257 -5.64292,-4.11265 -7.93838,-2.58236 -5.83421,0.47821 -3.82573,3.92137 -2.19977,6.12115 -1.91289,0.76515 -4.2083,-3.53879 -7.65145,-4.30394 -3.44315,-0.76514 -5.83421,-0.57385 -5.54728,4.2083 0,0 0,1.91286 -2.29546,1.53029 -2.29541,-0.38258 -4.2083,-5.73859 -6.12114,-10.32946 -1.91288,-4.59086 1.14769,-11.09459 1.14769,-11.09459 z"
         id="path19756-7"
         inkscape:connector-curvature="0"
         sodipodi:nodetypes="cccscccscccccccccssc" />
      <g
         transform="matrix(1.7429609,0,0,1.7429609,213.02734,25.143036)"
         id="g19764">
        <path
           style="color:#000000;fill:#ffe400;fill-opacity:1;fill-rule:nonzero;stroke:none;stroke-width:10;marker:none;visibility:visible;display:inline;overflow:visible;enable-background:accumulate"
           d="m 1270.1017,-547.91625 c 3.3184,-23.22851 19.9102,-29.03563 19.9102,-29.03563 l 8.2959,5.80712 c 0,0 16.7407,0.24165 12.4438,4.14795 -2.2814,2.07398 -6.2219,8.7107 3.5258,15.34741 0,0 8.9181,-8.71069 11.4069,-4.56274 -3.3184,5.59973 6.4293,8.0885 6.6367,4.14795 0,0 14.103,-0.82959 14.103,2.48876 0,3.31836 -7.2589,1.03699 -3.3184,7.67371 l 10.1611,2.49507 c 4.2155,0.82393 15.145,5.23248 1.6571,8.68803 l -9.7442,2.50512 c -4.1479,7.46631 -14.7252,4.77015 -8.7107,15.96961 -6.6367,0.82959 -12.2364,-8.91809 -17.214,-5.59973 -12.6512,1.03699 -8.2959,8.5033 -4.7701,13.27344 -4.148,1.65918 -9.1255,-7.67371 -16.5918,-9.33289 -7.4663,-1.65918 -12.6512,-1.24438 -12.029,9.12549 0,0 0,4.14794 -4.9776,3.31835 -4.9775,-0.82959 -9.1255,-12.44384 -13.2734,-22.39892 -4.148,-9.95507 2.4887,-24.0581 2.4887,-24.0581 z"
           id="path19756"
           inkscape:connector-curvature="0"
           transform="matrix(0.26458334,0,0,0.26458334,-6.3049604e-6,18.562493)"
           sodipodi:nodetypes="cccscccscccccccccssc" />
        <path
           style="color:#000000;fill:url(#linearGradient19950);fill-opacity:1;fill-rule:nonzero;stroke:none;stroke-width:10;marker:none;visibility:visible;display:inline;overflow:visible;enable-background:accumulate"
           d="m 1265.1242,-532.15404 c 0,-18.25097 15.7622,-24.88769 15.7622,-24.88769 l 7.4663,5.80713 c 0,0 6.6367,-4.97754 8.2959,-1.65918 1.6592,3.31835 4.148,9.12548 4.148,9.12548 l 10.7846,8.2959 9.1255,-5.80713 8.2959,0.82959 5.8071,3.31836 c 0,0 -2.4887,0 -8.2959,3.31836 -5.8071,3.31836 -1.6591,4.97754 -6.6367,5.80713 -4.9775,0.82959 -9.955,2.48876 -14.9326,2.48876 -4.9775,0 -11.6142,-1.65917 -11.6142,-1.65917 0,0 -5.8072,10.78466 -11.6143,9.95507 -5.8071,-0.82959 -2.4888,-10.78466 -6.6367,-9.12548 -4.148,1.65917 0,9.95507 -4.9776,4.97753 -4.9775,-4.97753 -4.9775,-10.78466 -4.9775,-10.78466 z"
           id="path19758"
           inkscape:connector-curvature="0"
           transform="matrix(0.30900481,0,0,0.30900481,-56.198683,42.202161)" />
      </g>
    </g>
    <g
       id="g19832"
       transform="matrix(1.1103755,0,0,1.1103755,-129.84244,-226.11459)"
       inkscape:export-filename="C:\Users\rober\Desktop\assets\ASSETS_2022\effects\muzzle_effects\pngs\muzzle_flare_04.png"
       inkscape:export-xdpi="90"
       inkscape:export-ydpi="90">
      <g
         transform="translate(323.09752,19.754604)"
         id="g19817">
        <path
           sodipodi:nodetypes="csscsssssscssc"
           transform="matrix(0.26458334,0,0,0.26458334,-6.3049604e-6,18.562493)"
           inkscape:connector-curvature="0"
           id="path19822"
           d="m 1111.6501,-467.44605 c -63.0488,11.61426 -38.1611,43.13866 -21.5693,52.26415 16.5918,9.12548 36.5019,-1.65918 47.2866,-3.31836 3.3783,-0.51973 9.0275,0.11573 28.1607,-0.13527 -0.362,-15.4829 113.9689,-4.54997 123.6542,-9.67747 14.103,-7.46631 48.1162,-4.14795 53.0937,-4.14795 4.9776,0 0.8296,-8.29589 -18.2509,-7.4663 -19.0806,0.82959 -37.3316,-0.82959 -47.2866,-1.65918 -9.9551,-0.82959 -39.8203,-3.31836 -50.605,-1.65918 -10.7847,1.65918 -17.4214,5.80713 -28.2061,-0.82959 -10.7846,-6.63672 -7.4663,-10.78467 -7.4663,-10.78467 0,0 -21.5693,0.68725 -36.5019,3.17602 -14.9326,2.48877 -21.5693,-12.44384 -30.6948,-14.10302 -9.1255,-1.65918 -11.6143,-1.65918 -11.6143,-1.65918 z"
           style="opacity:0.72566373;color:#000000;fill:#ffcc00;fill-opacity:1;fill-rule:nonzero;stroke:#ffa800;stroke-width:10;stroke-linejoin:round;stroke-opacity:1;marker:none;visibility:visible;display:inline;overflow:visible;filter:url(#filter19828);enable-background:accumulate" />
        <path
           style="color:#000000;fill:#ffe400;fill-opacity:1;fill-rule:nonzero;stroke:none;stroke-width:10;marker:none;visibility:visible;display:inline;overflow:visible;enable-background:accumulate"
           d="m 1111.6501,-467.44605 c -63.0488,11.61426 -38.1611,43.13866 -21.5693,52.26415 16.5918,9.12548 36.5019,-1.65918 47.2866,-3.31836 3.3783,-0.51973 9.0275,0.11573 28.1607,-0.13527 -0.362,-15.4829 113.9689,-4.54997 123.6542,-9.67747 14.103,-7.46631 48.1162,-4.14795 53.0937,-4.14795 4.9776,0 0.8296,-8.29589 -18.2509,-7.4663 -19.0806,0.82959 -37.3316,-0.82959 -47.2866,-1.65918 -9.9551,-0.82959 -39.8203,-3.31836 -50.605,-1.65918 -10.7847,1.65918 -17.4214,5.80713 -28.2061,-0.82959 -10.7846,-6.63672 -7.4663,-10.78467 -7.4663,-10.78467 0,0 -21.5693,0.68725 -36.5019,3.17602 -14.9326,2.48877 -21.5693,-12.44384 -30.6948,-14.10302 -9.1255,-1.65918 -11.6143,-1.65918 -11.6143,-1.65918 z"
           id="path19808"
           inkscape:connector-curvature="0"
           transform="matrix(0.26458334,0,0,0.26458334,-6.3049604e-6,18.562493)"
           sodipodi:nodetypes="csscsssssscssc" />
        <path
           style="color:#000000;fill:url(#linearGradient19942);fill-opacity:1;fill-rule:nonzero;stroke:none;stroke-width:10;marker:none;visibility:visible;display:inline;overflow:visible;enable-background:accumulate"
           d="m 1085.6322,-419.99909 c 4.9912,6.32526 20.3167,0.53428 16.899,-2.09466 -11.5127,-12.63081 13.2351,-14.1235 17.4063,-4.6875 0,0 0.01,-3.32374 4.1563,-5.8125 4.1479,-2.48877 6.6504,-0.0171 9.9687,0.8125 2.9138,0.72845 9.658,-1.73241 18.5625,-3.46875 5.3583,0.60361 11.1186,1.40514 14.7188,2.03125 6.746,1.17322 20.8164,0.56741 27.5624,-0.3125 6.2379,-0.81363 54.0346,-2.63718 57.5,-2.90625 -4.6929,0 -63.9516,-2.05044 -65.125,-2.34375 -1.1732,-0.2933 -10.2445,-0.0165 -14.9374,-2.65625 -4.693,-2.63974 -5.2813,-4.6875 -5.2813,-4.6875 0,0 -13.7866,3.23303 -29.625,4.40625 -1.3454,0.0997 -2.5556,0.0544 -3.6563,-0.0625 -0.763,-0.12969 -1.541,-0.25852 -2.3124,-0.40625 -0.074,-0.0142 -0.1444,-0.0481 -0.2188,-0.0625 -9.0993,-2.65214 -7.9239,-13.29735 -9.6562,-11.8125 -2.0532,1.75983 -4.1187,9.40225 -16.4376,5.29599 -12.3187,-4.10626 -9.9687,-11.73126 -9.9687,-11.73126 -27.4766,-3.76309 -33.3078,29.67376 -9.5553,40.49868 z"
           transform="matrix(0.26458334,0,0,0.26458334,-6.3049604e-6,18.562493)"
           id="path19810"
           inkscape:connector-curvature="0"
           sodipodi:nodetypes="ccccscssccscsccccscc" />
        <path
           style="color:#000000;fill:#ffff00;fill-opacity:1;fill-rule:nonzero;stroke:none;stroke-width:10;marker:none;visibility:visible;display:inline;overflow:visible;enable-background:accumulate"
           d="m 1274.4069,-437.03671 c -7.3326,-0.58661 -18.7715,0.2933 -16.7184,0.58661 2.0532,0.2933 11.1456,2.63974 14.6653,2.05313 3.5196,-0.58661 15.5451,-0.87992 11.4388,-2.05313 -4.1062,-1.17322 -9.3857,-0.58661 -9.3857,-0.58661 z"
           id="path19814"
           inkscape:connector-curvature="0"
           transform="matrix(0.26458334,0,0,0.26458334,-6.3049604e-6,18.562493)" />
      </g>
    </g>
    <g
       id="g19875"
       transform="matrix(1.1103755,0,0,1.1103755,-326.77025,21.701317)"
       inkscape:export-filename="C:\Users\rober\Desktop\assets\ASSETS_2022\effects\muzzle_effects\pngs\muzzle_flare_08.png"
       inkscape:export-xdpi="90"
       inkscape:export-ydpi="90">
      <path
         style="color:#000000;fill:#ffcc00;fill-opacity:1;fill-rule:nonzero;stroke:#ff9000;stroke-width:10;stroke-linejoin:round;stroke-opacity:1;marker:none;visibility:visible;display:inline;overflow:visible;filter:url(#filter19871);enable-background:accumulate"
         d="m 3165.875,-998.125 c -3.7534,-0.12834 -22.1078,12.30936 -25.1875,18.46875 -54.896,41.51116 -40.7373,20.57518 0,61.3125 3.5197,7.03929 26.9857,22.28668 25.8125,17.59375 -1.1732,-4.69285 -8.1875,-21.125 -8.1875,-21.125 l -1.1875,-11.71875 3.5312,-9.40625 21.0938,7.0625 c 0,0 26.9884,16.42855 23.4688,10.5625 -3.5199,-5.86609 -5.8438,-15.28125 -5.8438,-15.28125 l 3.5,-0.375 c 1.3647,0.27468 2.8798,0.4351 5.2812,0.96875 5.2796,1.17322 12.6273,2.3558 14.0938,2.0625 1.4042,-0.28084 -2.8232,-2.4368 -2.1562,-4.9375 l 37.625,-4.15625 13.4374,-1.03125 -14,-2.5 -32.5937,-3.78125 c -0.3721,-0.40997 -0.6819,-0.80991 -0.8437,-1.1875 -0.88,-2.05313 -0.3032,-3.24509 1.75,-4.125 2.0532,-0.87992 -0.8916,-0.58169 -3.5313,-0.875 -2.6397,-0.2933 -9.9682,2.36518 -13.7813,4.125 -0.099,0.0456 -0.184,0.0822 -0.2812,0.125 l -8.5,-1 c 0,0 2.3239,-9.41516 5.8438,-15.28125 3.5196,-5.86608 -23.4688,10.5625 -23.4688,10.5625 l -21.0938,7.0625 -3.5312,-9.40625 1.1875,-11.71875 c 0,0 7.0143,-16.43213 8.1875,-21.125 0.1467,-0.58661 -0.089,-0.85667 -0.625,-0.875 z"
         transform="matrix(0.26458334,0,0,0.26458334,-6.3049604e-6,18.562493)"
         id="path19857"
         inkscape:connector-curvature="0" />
      <path
         id="path19839"
         transform="matrix(0.26458334,0,0,0.26458334,-6.3049604e-6,18.562493)"
         d="m 3165.875,-998.125 c -3.7534,-0.12834 -22.1078,12.30936 -25.1875,18.46875 -54.896,41.51116 -40.7373,20.57518 0,61.3125 3.5197,7.03929 26.9857,22.28668 25.8125,17.59375 -1.1732,-4.69285 -8.1875,-21.125 -8.1875,-21.125 l -1.1875,-11.71875 3.5312,-9.40625 21.0938,7.0625 c 0,0 26.9884,16.42855 23.4688,10.5625 -3.5199,-5.86609 -5.8438,-15.28125 -5.8438,-15.28125 l 3.5,-0.375 c 1.3647,0.27468 2.8798,0.4351 5.2812,0.96875 5.2796,1.17322 12.6273,2.3558 14.0938,2.0625 1.4042,-0.28084 -2.8232,-2.4368 -2.1562,-4.9375 l 37.625,-4.15625 13.4374,-1.03125 -14,-2.5 -32.5937,-3.78125 c -0.3721,-0.40997 -0.6819,-0.80991 -0.8437,-1.1875 -0.88,-2.05313 -0.3032,-3.24509 1.75,-4.125 2.0532,-0.87992 -0.8916,-0.58169 -3.5313,-0.875 -2.6397,-0.2933 -9.9682,2.36518 -13.7813,4.125 -0.099,0.0456 -0.184,0.0822 -0.2812,0.125 l -8.5,-1 c 0,0 2.3239,-9.41516 5.8438,-15.28125 3.5196,-5.86608 -23.4688,10.5625 -23.4688,10.5625 l -21.0938,7.0625 -3.5312,-9.40625 1.1875,-11.71875 c 0,0 7.0143,-16.43213 8.1875,-21.125 0.1467,-0.58661 -0.089,-0.85667 -0.625,-0.875 z"
         style="color:#000000;fill:#ffe400;fill-opacity:1;fill-rule:nonzero;stroke:none;stroke-width:10;marker:none;visibility:visible;display:inline;overflow:visible;enable-background:accumulate"
         inkscape:connector-curvature="0" />
      <path
         sodipodi:nodetypes="cssssccscsssccssssssscscsccssccssc"
         transform="matrix(0.26458334,0,0,0.26458334,-6.3049604e-6,18.562493)"
         inkscape:connector-curvature="0"
         id="path19847"
         d="m 3105.5052,-947.38607 c -5.5727,-10.85225 19.3581,-19.06478 28.1572,-19.65139 8.7991,-0.58661 15.2518,4.39956 13.7853,4.39956 -1.4665,0 -2.933,0.87992 -3.8129,3.51966 -0.8799,2.63973 -0.5866,6.45269 0.8799,7.62591 1.4665,1.17321 5.2795,-0.29331 5.2795,-0.29331 0,0 4.6928,-2.05313 7.6259,0.29331 2.933,2.34643 14.0786,1.46652 16.425,-1.75983 2.3464,-3.22635 13.7853,-0.87991 15.5451,-2.93304 1.7599,-2.05313 5.5728,-4.10626 3.813,-1.75983 -1.7598,2.34644 -1.7598,2.63974 -1.4665,4.69287 0.2933,2.05313 2.933,2.93304 6.4527,2.34643 3.5196,-0.5866 9.9723,-0.5866 12.3187,0.29331 2.3465,0.87991 7.3326,-0.87991 7.3326,-0.87991 0,0 2.6398,-3.22635 2.3465,-1.17322 -0.2933,2.05313 -0.2933,2.63974 0.8799,2.63974 1.1732,0 19.9447,0.2933 17.3049,0.87991 -2.6397,0.58661 -19.6514,3.22635 -22.5844,2.34643 -2.933,-0.87991 -8.5058,-0.87991 -7.6259,0.87992 0.8799,1.75982 0.5866,2.05313 -1.1732,1.75982 -1.7598,-0.2933 -3.813,-1.75982 -7.6259,-1.75982 -3.813,0 -14.3719,-1.75983 -14.3719,-1.75983 0,0 2.3464,4.98617 1.1732,4.69287 -1.1732,-0.29331 -4.9862,0 -7.9192,-1.17322 -2.9331,-1.17322 -10.8523,-2.93304 -14.9586,-3.22635 -4.1062,-0.2933 -3.2263,0.29331 -6.4526,1.46653 -3.2264,1.17321 -6.4527,1.75982 -9.3858,2.63973 -2.933,0.87992 -3.2263,3.51965 -3.2263,4.98618 0,1.46652 0.8799,4.10626 2.6397,5.86608 1.7598,1.75983 3.2264,3.51965 3.2264,3.51965 l -1.7599,6.746 c 0,0 -4.6928,1.46652 -14.0786,-5.57278 -9.3857,-7.0393 -19.0647,-9.97234 -23.4643,-13.19869 -4.3995,-3.22635 -5.2795,-6.45269 -5.2795,-6.45269 z"
         style="color:#000000;fill:#ffff00;fill-opacity:1;fill-rule:nonzero;stroke:none;stroke-width:10;marker:none;visibility:visible;display:inline;overflow:visible;enable-background:accumulate" />
    </g>
  </g>
</svg>
